<svg id="Layer_1" data-name="Layer 1" xmlns="http://www.w3.org/2000/svg" viewBox="0 0 420 487"><defs>
<style>.clrnc{fill:#243873;}</style></defs><title>clearance</title>
<path class="clrnc" d="M391.12,301.86c-.63-1.26-3.76-2.74-7.12-5.86-3.4,12.86-6.12,24.7-10,
36-2.55,7.41-4,18.2-12.12,18.58-8.88.42-6.51-13.55-4.39-21.89,16.73-65.92,32.68-132,
50.33-197.73,5.29-19.69,4.87-27.48-19.49-27.23-118.88,1.22-237.77.92-356.65.13-16.93-.11-21.31,
4.48-20.71,21,1,27.68-1,55.6,9.49,82,11.49,28.82,6.36,56.75-1.23,85.45-16.06,60.77-5,
122.9-7.15,184.39-.1,2.75,2.66,5.59,4.08,8.38h100c43.53-5,81.28-12.95,123.46-18.62,
0-.07,0-.13,0-.21s.05-.36.07-.55C224.2,455,208.12,454,194.16,447.85c-6.14-2.7-12.85-4.92-10.08-13,
2.59-7.59,9.14-7.25,15.89-4.89,54.35,19,110.42,32.88,163.67,55.13h42.84c1.42-2.8,4.08-5.59,
4.09-8.39C410.62,417.7,419,357.73,391.12,301.86Zm-145.58-122c-11.78.86-23.67.22-35.52.22v.27c-10.27,
0-20.55.23-30.82-.07-8-.24-13.8-4.66-14.87-12.59-1.1-8.24,4-13.71,11.76-15.26a178.43,
178.43,0,0,1,70.62,0c6.77,1.35,11.46,6,11.65,13.1C258.58,173.83,253.42,179.29,245.54,179.87Z"/>
<path class="clrnc" d="M185.25,85.22c11.84,0,20.7-.49,22.75-2.22,1.2-1,0-12.84-5.86-25.66C194.85,
41.42,190.72,26.46,206,9.09c-43.8,0-83.19,0-122.58,0-4.88,0-9.74.39-12.9,4.52C53.05,36.4,
35.71,59.32,16,85.24,76,85.24,130.62,85.3,185.25,85.22Z"/>
<path class="clrnc" d="M235.08,85.17c55.18,0,110.36,0,164.93,
0-9.45-25.87-55.06-61.92-69.57-72.9A16.44,16.44,0,0,0,320.57,9c-9.28-.06-29.63-.15-54.51,0C257,
9,261,9,249.47,9,239,8.93,222,11,222,11c-4.59,3.68-9.58,12.09-10,18-1.24,17.33,11.37,37.56,
16.39,55.21C228.65,85.11,232.76,85.17,235.08,85.17Z"/>
</svg>