<svg id="Layer_1" data-name="Layer 1" xmlns="http://www.w3.org/2000/svg" viewBox="0 0 412 477">
<defs><style>.crr{fill:#253873;}.crr{fill:#243873;}.crr1{fill:#fcfcfd;}</style></defs>
<title>courier</title><path class="crr" d="M104,474c-49.76-.64-89.73-42.89-90.51-92.47C12.74,
333.3,48.43,291,97.11,290.39c30.53-.41,44.89-.39,45-39.87,0-10.18.19-27.83.9-28.52.3-.3,87-2,90,1,
4,4-.18,48.82,7,54,3.81,2.75,55.51,2.34,59,0,8.06-5.39.58-50.21,5-54,3.87-3.31,84-2,86,0,1.58,
1.58-.54,158.48-.07,223.44.16,21.42-10.58,28.32-30.25,28-32.47-.54-64.95-.14-97.43-.14C262.26,473.67,156.86,474.68,104,474Z"/>
<path class="crr" d="M169.7,115.42c0,18.84-1.09,28.59-.26,51.31C169.81,176.79,170,203,168,
207c-1.9,3.8-25.37,1.95-26-1-1.1-5.11-1.41-30-1.16-37.26,1.16-33.74,0-56,.11-83.91C141,62,135,
48,114.76,34.81c-8.57-5.58-25.83-10.32-17-25.08C108.39-8,131,12.34,131.46,12.68,181,50,165.75,79.83,169.7,115.42Z"/>
<path class="crr1" d="M104,315.39c37.59-1.1,68.22,28.25,68.13,65.26-.08,34.79-28.82,63.75-64.31,
64.82-37.54,1.13-68-28.11-68-65.28C39.78,345.27,68.34,316.42,104,315.39Z"/>
</svg>