<svg id="Layer_1" data-name="Layer 1" xmlns="http://www.w3.org/2000/svg" viewBox="0 0 1043 479">
<defs><style>.cls-1,.cls-2{fill:#243873;}.cls-2{stroke:#fff;stroke-miterlimit:10;}</style></defs>
<title>man-van</title>
<path class="cls-1" d="M1032.19,248l-90.34-37.2a17.42,17.42,0,0,1-7.47-5.87L859.6,102.13a17.43,17.43,
0,0,0-14.11-7.19h-69.2a17.45,17.45,0,0,1-17.45-17.26l-.66-59.79A17.45,17.45,0,0,0,740.73.63H234.45A17.45,
17.45,0,0,0,217,18.08V389.44a17.45,17.45,0,0,0,17.45,17.45H337.07a17.41,17.41,0,0,1,17.08,14,70.48,70.48,
0,0,0,139.57-14c0-.08,0-.16,0-.24l303.54-.52A17.42,17.42,0,0,1,814.36,420a70.48,70.48,0,0,0,139.51-14.18h1l70.23,
1.65A17.46,17.46,0,0,0,1043,390.06V264.16A17.47,17.47,0,0,0,1032.19,248Zm-608.95,192a36.28,36.28,0,1,1,
36.27-36.27A36.27,36.27,0,0,1,423.24,440.06ZM803.36,207.91a12.2,12.2,0,0,1-12.2-12.2v-54a12.57,12.57,0,0,1,
12.57-12.57h39a12.19,12.19,0,0,1,10.07,5.32L890,188.82A12.2,12.2,0,0,1,880,207.91Zm80,232.15a36.28,36.28,0,1,1,
36.27-36.27A36.27,36.27,0,0,1,883.4,440.06Z"/><circle class="cls-1" cx="88.5" cy="128.25" r="47.75"/>
<path class="cls-2" d="M44.5,337.84v7.51a19,19,0,0,1-18.81,19h0a19,19,0,0,1-19.19-19V236.5a40,40,0,0,1,40-40h85a40,
40,0,0,1,40,40V345.31a19,19,0,0,1-19.19,19h0a19,19,0,0,1-18.81-19V460.67a18.83,18.83,0,0,1-18.83,18.83h-6.34A18.83,
18.83,0,0,1,89.5,460.67V348.5h-1V460.67A18.83,18.83,0,0,1,69.67,479.5H63.33A18.83,18.83,0,0,1,44.5,460.67V265.5"/>
</svg>