<svg id="Layer_1" data-name="Layer 1" xmlns="http://www.w3.org/2000/svg" viewBox="0 0 829 480">
    <defs><style>.cls-1{fill:#243873;}.cls-2{fill:#8ed0b9;}</style></defs>
    <title>removals-icon</title>
    <path class="cls-1" d="M818.19,251l-90.34-37.2a17.42,17.42,0,0,1-7.47-5.87L645.6,
    105.13a17.43,17.43,0,0,0-14.11-7.19h-69.2a17.45,17.45,0,0,1-17.45-17.26l-.66-59.79A17.45,
    17.45,0,0,0,526.73,3.63H20.45A17.45,17.45,0,0,0,3,21.08V392.44a17.45,17.45,0,0,0,17.45,
    17.45H123.07a17.41,17.41,0,0,1,17.08,14,70.48,70.48,0,0,0,139.57-14c0-.08,0-.16,0-.24l303.54-.52A17.42,
    17.42,0,0,1,600.36,423a70.48,70.48,0,0,0,139.51-14.18h1l70.23,1.65A17.46,17.46,0,0,0,829,393.06V267.16A17.47,
    17.47,0,0,0,818.19,251Zm-608.95,192a36.28,36.28,0,1,1,36.27-36.27A36.27,36.27,0,0,1,209.24,443.06ZM589.36,
    210.91a12.2,12.2,0,0,1-12.2-12.2v-54a12.57,12.57,0,0,1,12.57-12.57h39a12.19,12.19,0,0,1,10.07,5.32L676,
    191.82A12.2,12.2,0,0,1,666,210.91Zm80,232.15a36.28,36.28,0,1,1,36.27-36.27A36.27,36.27,0,0,1,669.4,443.06Z"/>
    <polygon class="cls-2" points="191 162 191 259 361 259 361 162 276 85 191 162"/>
</svg>