<svg id="OBJECTS" xmlns="http://www.w3.org/2000/svg" viewBox="0 0 692.67 437.61"><defs><style>.cls-1{fill:#ffa099;}.cls-2{fill:#ff8680;}.cls-3{fill:#1f2136;}.cls-4{fill:#d16d6d;}.cls-5{fill:#1f2733;}.cls-6{fill:#8ed0b9;}.cls-7{fill:#eca85e;}.cls-8{fill:#161826;opacity:0.3;}.cls-9{fill:#fff;}.cls-10,.cls-22,.cls-24{fill:none;stroke:#fff;stroke-linecap:round;stroke-miterlimit:10;}.cls-10{stroke-width:1.02px;}.cls-11,.cls-12{fill:#4b4762;}.cls-12{opacity:0.6;}.cls-13,.cls-15{fill:#001c28;}.cls-14{fill:#243873;}.cls-15{opacity:0.2;}.cls-16{fill:#f4d071;}.cls-17{fill:#fbeed1;}.cls-18{fill:#8ee2ff;}.cls-19{fill:#a04747;}.cls-20{fill:#873d3d;}.cls-21{fill:#602b2b;}.cls-22{stroke-width:1.03px;}.cls-23{fill:#ff621d;}.cls-24{stroke-width:1.05px;}.cls-25{fill:#ff9a78;}.cls-26{fill:#c66e5d;opacity:0.4;}.cls-27{fill:#8c3f3f;}.cls-28{fill:#b76656;}</style></defs><title>persons-about</title><path class="cls-1" d="M101.9,72.63s-1.56,18.73,1.31,19.19,25.47,9.92,25.47,9.92S110.51,115.28,90.43,116,57.74,97.65,57.74,97.65s22-5.16,23.57-6.51-1.56-21.21-1.56-21.21Z"/><path class="cls-2" d="M102.71,91.52c-7.44-.33-14.74-1.4-21-4.38-.24-6.17-2-17.21-2-17.21l22.15,2.7S100.53,89.07,102.71,91.52Z"/><path class="cls-1" d="M77.63,32.7S84.87,18,100.78,22.41s17.11,20.84,18.08,35.25S114.26,84.6,101.5,85.2C90.41,85.71,71.37,82.11,77.63,32.7Z"/><path class="cls-1" d="M77.17,49.34s-.77-2.72-5-.1c-5.34,3.32-1.19,17.29,5,16.35S77.17,49.34,77.17,49.34Z"/><path class="cls-3" d="M74.34,18.49c.35,0,7.37,2.3,2.27,2.42,4.26,5.41,3.71,6.6,10,8.3,2.59,10.72-4.53,16.6-4.53,16.6L83,58.54l-4.86.15s.72-8.75-2.9-9.78-5.06,3.35-5.06,3.35C63.17,42,57.5,19.88,74.34,18.49Z"/><path class="cls-3" d="M101.09,44.44a38.59,38.59,0,0,0-3.8-.93,14.63,14.63,0,0,0-3.45-.27,13.15,13.15,0,0,0-3.38.57c-.59.12-1.15.38-1.78.57s-1.2.51-1.92.69a8.91,8.91,0,0,1,1.13-1.8,8.58,8.58,0,0,1,1.63-1.43,7.9,7.9,0,0,1,4.22-1.37,8.35,8.35,0,0,1,4.31,1A7.34,7.34,0,0,1,101.09,44.44Z"/><path class="cls-3" d="M117.65,45.21c-2-1.12-3.64-2-5.27-2.08a6.91,6.91,0,0,0-2.54.29c-.47.09-.91.33-1.42.45a12.64,12.64,0,0,1-1.55.56,7.65,7.65,0,0,1,.84-1.5,6.15,6.15,0,0,1,1.29-1.2,5.37,5.37,0,0,1,3.56-1,5.56,5.56,0,0,1,3.38,1.49A5.47,5.47,0,0,1,117.65,45.21Z"/><path class="cls-4" d="M105.57,45.39c1,2.7,1.84,5.39,2.68,8.07.4,1.34.83,2.67,1.27,4s.91,2.61,1.47,3.84l.35.76-.68.26c-.92.37-1.86.71-2.8,1S106,64,105,64.2c.81-.62,1.65-1.16,2.49-1.7s1.7-1,2.57-1.52l-.33,1a21,21,0,0,1-1.89-4,33.74,33.74,0,0,1-1.24-4.13,40.76,40.76,0,0,1-.76-4.23A29.29,29.29,0,0,1,105.57,45.39Z"/><path class="cls-4" d="M75.93,62.72a5.61,5.61,0,0,1-1-.92,3.69,3.69,0,0,1-.74-1.24A1.92,1.92,0,0,1,74.29,59,2.87,2.87,0,0,1,75.42,58l-.22.3c.09-1,.13-2.12.12-3.16a9.81,9.81,0,0,0-.38-3c-.17-.45-.4-.74-.75-.73a3.17,3.17,0,0,0-1.31.48,3.32,3.32,0,0,0-1.31,2.66,3.16,3.16,0,0,1,2.58-3.88,1.31,1.31,0,0,1,1,.34,2.39,2.39,0,0,1,.55.8,8.92,8.92,0,0,1,.51,3.34A22.4,22.4,0,0,1,76,58.35l0,.2-.18.1a2.37,2.37,0,0,0-.92.71,1.39,1.39,0,0,0-.2,1.07A5.18,5.18,0,0,0,75.93,62.72Z"/><ellipse class="cls-5" cx="91.22" cy="51.25" rx="1.29" ry="3.82"/><path class="cls-5" d="M108.29,50.53c0,2.11.58,3.83,1.29,3.83s1.29-1.72,1.29-3.83-.58-3.82-1.29-3.82S108.29,48.42,108.29,50.53Z"/><path class="cls-4" d="M92.45,69.38c-.14,0,0,.1.09.15l.27.12a5.15,5.15,0,0,0,.54.23c.37.14.73.27,1.1.38.74.24,1.48.43,2.22.6a18.1,18.1,0,0,0,4.43.47,13.58,13.58,0,0,0,4.31-.76,21.15,21.15,0,0,0,4.12-2.11A9.33,9.33,0,0,1,106,71.88a10.36,10.36,0,0,1-4.87,1.3,12.37,12.37,0,0,1-4.91-.94,12,12,0,0,1-2.18-1.17,11.56,11.56,0,0,1-1-.76c-.15-.14-.3-.28-.44-.43s-.13-.17-.19-.25a.71.71,0,0,1-.08-.15.09.09,0,0,1,0-.09S92.42,69.38,92.45,69.38Z"/><path class="cls-6" d="M64.4,43.25s127-24.46,49.61-15.18c0,0-6.08-22.78-26.32-19.24C64,13,57.82,27.56,64.4,43.25Z"/><path class="cls-6" d="M114,28.07C191.45,18.79,64.4,43.25,64.4,43.25,118.27,31.78,114,28.07,114,28.07Z"/><path class="cls-7" d="M119.05,401.81l2,27.38s71.43,18.61,14.57-8l-1.52-36.86Z"/><path class="cls-8" d="M126,421.71a31,31,0,0,1-5.52-.26l-1.4-19.64,15-17.47,1.47,35.51A25.94,25.94,0,0,1,126,421.71Z"/><path class="cls-9" d="M157,433.24c6.71,7.26-36-3.75-36-3.75l-.11-1.58C124.26,428.78,155.08,436.55,157,433.24Z"/><path class="cls-10" d="M136.67,421.05s-3.55,0-5.07,2.35"/><path class="cls-10" d="M139.58,422.71s-3.55,0-5.07,2.35"/><path class="cls-10" d="M142.84,424.44s-3.55,0-5.07,2.35"/><path class="cls-7" d="M74.23,402l-2,27.38S.84,448,57.7,421.36l1.52-36.85Z"/><path class="cls-8" d="M67.31,421.88a31,31,0,0,0,5.52-.26L74.23,402l-15-17.47L57.75,420A25.94,25.94,0,0,0,67.31,421.88Z"/><path class="cls-9" d="M36.28,433.41c-6.71,7.26,36-3.75,36-3.75l.11-1.58C69,429,38.2,436.72,36.28,433.41Z"/><path class="cls-10" d="M56.61,421.22s3.55,0,5.07,2.35"/><path class="cls-10" d="M53.7,422.88s3.55,0,5.07,2.35"/><path class="cls-10" d="M50.44,424.61s3.55,0,5.07,2.35"/><path class="cls-11" d="M126.41,180.72S141,311.33,138.17,417c0,0-14.5,5.27-19.12,1.32-4-25.06-4.7-73.62-10.63-109.89-5.59-34.15-11.88-74.54-11.88-74.54l-2.87.49S78,405.71,75.38,418.24c-15.17,3.95-20.45-2.64-20.45-2.64s.55-201,4.78-234.28C65.25,137.66,126.41,180.72,126.41,180.72Z"/><path class="cls-12" d="M130.56,223.85c4.09,47.24,9.45,125.34,7.61,193.16,0,0-14.5,5.27-19.12,1.32-4-25.06-4.7-73.62-10.63-109.89-5.23-31.92-11.06-69.3-11.8-74C108.54,232.62,120.06,229.44,130.56,223.85Z"/><path class="cls-13" d="M114.29,173.27c7.19,4,12.12,7.45,12.12,7.45s.86,7.73,2.13,20.93c-2.83.93-6.81,2.14-11.63,3.34C116.12,194.41,115.29,183.84,114.29,173.27Z"/><path class="cls-13" d="M76.74,161.93c9.47-1,21.17,3.17,30.85,7.86,1.2,12.2,2.15,24.41,3.06,36.63a146.46,146.46,0,0,1-34.17,3.25C76.49,193.75,76.7,177.84,76.74,161.93Z"/><path class="cls-13" d="M70.12,209.29A99.51,99.51,0,0,1,58,207.51c.49-11.84,1.06-21,1.71-26.19,1.23-9.7,5.22-15.11,10.66-17.67C70.32,178.86,70.13,194.07,70.12,209.29Z"/><path class="cls-1" d="M147.26,111.44s20.56,40,22.88,40.73l14.65-29.83c-5.64-19.39-.15-10.36,2.37-5.76,10.86-33.26,5.77-3.74,5.77-3.74,9.12-30.64,4.07.68,4.07.68,11.06-32.77,3.4,1,3.4,1,20.94-45.19-12.56,64.21-27.15,66.51-12.9,2-49.27-59.13-49.27-59.13Z"/><path class="cls-2" d="M140.29,147.25C131.17,134,124,121.92,124,121.92l23.28-10.48s4.5,8.75,9.52,18.13C152,136.14,146.84,142.58,140.29,147.25Z"/><path class="cls-14" d="M135.48,141.8c-4.08-5.07-8.91-13.82-11.44-15.72-8-6,5.16-29.11,5.16-29.11s10.42,1.4,15.2,7A172.48,172.48,0,0,1,157,124.72C151,132.37,146.78,136.6,135.48,141.8Z"/><path class="cls-14" d="M105.17,92.19l-9.49,9.06S85.54,94.94,82.75,91c0,0-28.33,6.87-34.56,8.94-4.71,1.57,7,93.54,12.13,99.59s67.3,2.43,70.94-9.7c.51-1.54-2.19-2.87-1.82-7.88,1.81-24.53,5.15-83.83,5.15-83.83Z"/><path class="cls-15" d="M68.66,143.92c14,8.17,27.79,17,43.58,21.49a137.62,137.62,0,0,0,18.08,3.72c-.31,4.82-.61,9.19-.88,12.8-.37,5,2.33,6.34,1.82,7.88-3.64,12.13-65.81,15.76-70.94,9.7-3.18-3.74-8.86-40.27-11.62-68C55,136.14,62,140,68.66,143.92Z"/><polygon class="cls-6" points="97.08 97.03 106.75 87.43 111.91 92.22 102.76 107.65 98.09 99.04 95.67 101.25 97.08 97.03"/><polygon class="cls-6" points="81.24 87.34 95.67 101.25 92.85 100.22 87.67 108.94 76.22 91.7 81.24 87.34"/><rect class="cls-7" x="11.57" y="132.73" width="78.65" height="94.68" transform="translate(-133.23 213.46) rotate(-84.5)"/><rect class="cls-16" x="41.63" y="165.84" width="78.65" height="34.27" transform="translate(-108.93 246.01) rotate(-84.5)"/><rect class="cls-17" x="78.84" y="145.76" width="13.44" height="9.29" transform="translate(-72.36 221.14) rotate(-84.5)"/><path class="cls-1" d="M11.42,156.79c9.28-20.73,33-52.33,33-52.33L63,122s-23.07,27.15-28,34.81Z"/><path class="cls-2" d="M25.92,131.14c9.21-14.33,18.48-26.68,18.48-26.68L63,122S50.3,136.87,41.73,147.71C35.86,142.71,30.31,137.41,25.92,131.14Z"/><path class="cls-1" d="M31.56,149.66l28,46.58C78.9,195,67.09,199,61.85,199.3c14.76,13.23,2.67,6.32,2.67,6.32,10.82,8.95-2.41,2.33-2.41,2.33,9.41,10.43-1.79,1.78-1.79,1.78,15,21.64-53.17-38.8-48.9-52.94.87-2.87,6.72-14.09,13-16.29Z"/><path class="cls-14" d="M49.77,141.8c4.08-5.07,8.91-13.82,11.44-15.72,8-6,16.68-34.45,16.68-34.45s-32.26,6.74-37,12.39a172.48,172.48,0,0,0-12.56,20.7C34.21,132.37,38.47,136.6,49.77,141.8Z"/><path class="cls-18" d="M86.76,60.26c2.95.7,4.14,1.92,7.16,1.77L109,58.69c1.75-.08,3.86,3.16,5.37,4l5.81,1.05-.58,6.16c-2.8,11.78-12.17,19.61-24,16.81-5.08-1.2-10.47-2.94-14.69-6L80.29,77,83,58.54Z"/><path class="cls-9" d="M80.2,76.5a.64.64,0,0,1-.17-.16,49.8,49.8,0,0,1-6.21-11.75s.19.14.56.33.69.42.74.42a42.12,42.12,0,0,0,5.42,10,1.12,1.12,0,0,1,0,1C80.49,76.45,80.37,76.59,80.2,76.5Z"/><path class="cls-9" d="M78.29,55.77a.57.57,0,0,1,.26,0c7.64,2.66,6.75,3.8,6.69,3.83s.7.09-6.52-2.63a1.17,1.17,0,0,1-.64-.82C78,56,78.07,55.78,78.29,55.77Z"/><path class="cls-19" d="M357.37,115.12A81,81,0,0,0,372.63,118a44.7,44.7,0,0,0,7,0c6.31-4.46,10.78-13.13,12.61-21.3-3.73-1.08-6.62-2-7.17-2.46-1.8-1.43,3.17-20.69,3.17-20.69l-26.76,1.15s.73,18.47-2.74,18.72c-1.26.09-5.72,1.17-10.89,2.51C349.63,103.25,352.09,110.12,357.37,115.12Z"/><path class="cls-20" d="M359.38,93.18c8.95.18,17.78-.37,25.47-2.86.66-6,3.42-16.75,3.42-16.75l-26.76,1.15S362.15,90.93,359.38,93.18Z"/><path class="cls-19" d="M392.85,36.27s-7.16-14.6-25.7-11.46-21.6,26.25-23.81,40.05S347,83.74,361.52,85.17C374.17,86.41,396.24,84.23,392.85,36.27Z"/><path class="cls-19" d="M392.11,52.31s1.08-2.56,5.69.24c5.85,3.56,0,16.72-7,15.4S392.11,52.31,392.11,52.31Z"/><path class="cls-3" d="M394.36,52a4.55,4.55,0,0,1,3,.41c1.94-5.26,3.87-10.53,5.56-15.88l-4.36-1.1c-4.38-1.13-8.82-2.58-13.29-3.85-3.92,10.26,1.46,17,1.46,17l-2,12.2,5.56.47S390.15,52.78,394.36,52Z"/><path class="cls-3" d="M386.71,48.58s-4.12,29.57-9.28,29.36.57-9.31-5.62-11.82-20.21-8.43-22.93.21-4.9,5.24-5.54-1.47c0,0-7.81,18.78,4.88,23.1s29.69,7,36.61-4.44,4-17.64,6.5-29.25"/><path class="cls-21" d="M392.49,65.27a8.34,8.34,0,0,0,1-1,4.39,4.39,0,0,0,.4-.56c.06-.09.1-.19.15-.28a2.24,2.24,0,0,0,.12-.29,1.13,1.13,0,0,0,.05-.57.72.72,0,0,0-.07-.25.59.59,0,0,0-.14-.22c-.06-.07-.09-.15-.19-.21l-.23-.18a1.2,1.2,0,0,0-.27-.16l-.27-.15-.21-.12,0-.23a18.41,18.41,0,0,1,0-3.32,10.75,10.75,0,0,1,.27-1.67,4.65,4.65,0,0,1,.72-1.64,2.07,2.07,0,0,1,.8-.65,1.56,1.56,0,0,1,1-.07,4.27,4.27,0,0,1,.82.31,3.53,3.53,0,0,1,.76.49,3.36,3.36,0,0,1,.6.65,3.14,3.14,0,0,1,.35.8,2.93,2.93,0,0,1,0,1.66,3.25,3.25,0,0,0-.3-1.53,2.75,2.75,0,0,0-1-1.09,4.88,4.88,0,0,0-.65-.32,4.18,4.18,0,0,0-.72-.2.92.92,0,0,0-1,.48,7,7,0,0,0-.75,2.87,27.91,27.91,0,0,0-.11,3.17l-.23-.35.33.21a2.26,2.26,0,0,1,.31.23l.3.28a3,3,0,0,1,.25.34,1.1,1.1,0,0,1,.17.4.91.91,0,0,1,.07.43,1.69,1.69,0,0,1-.18.81,2.87,2.87,0,0,1-.43.64,6.17,6.17,0,0,1-.53.5A5.51,5.51,0,0,1,392.49,65.27Z"/><path class="cls-9" d="M352,67.34l20.46,2.77S358.25,77.5,352,67.34Z"/><path class="cls-21" d="M360.58,62.18a32.44,32.44,0,0,1-3.44-1c-1.13-.37-2.24-.79-3.32-1.24l-.68-.28.22-.76c.2-.72.39-1.39.64-2.07s.49-1.33.77-2A34,34,0,0,1,356.66,51c.35-.62.72-1.23,1.11-1.82s.79-1.19,1.24-1.74.89-1.12,1.37-1.64,1-1,1.51-1.51c-.61,1.29-1.26,2.53-1.86,3.78L359.12,50c-.28.64-.6,1.25-.88,1.88l-.84,1.88-.83,1.9-.8,1.9c-.24.63-.53,1.28-.75,1.9l-.46-1c1,.55,2.06,1.14,3.07,1.77A32.31,32.31,0,0,1,360.58,62.18Z"/><path class="cls-3" d="M368.55,47.1s-.05.26-.11.71a11,11,0,0,0-.13,1.82,5.74,5.74,0,0,0,.11,1.15,3.6,3.6,0,0,0,.4,1.11,4.14,4.14,0,0,0,.34.48c.16.12.28.27.45.38a3.69,3.69,0,0,0,1.13.51,3.54,3.54,0,0,0,.71.14,2.11,2.11,0,0,0,.56,0,2.38,2.38,0,0,0,.59-.12,2.24,2.24,0,0,0,.55-.24,5.9,5.9,0,0,0,1.75-1.61,18,18,0,0,0,1-1.54c.23-.39.35-.63.35-.63a7.16,7.16,0,0,1-.08.73,7.55,7.55,0,0,1-.57,1.85,6.38,6.38,0,0,1-.67,1.16,4.46,4.46,0,0,1-1.11,1.1,3.39,3.39,0,0,1-.75.42,2.9,2.9,0,0,1-.87.25,3.88,3.88,0,0,1-1,0,4.27,4.27,0,0,1-.8-.14,4.91,4.91,0,0,1-1.64-.8,4.37,4.37,0,0,1-.65-.64,4.52,4.52,0,0,1-.44-.76,3.94,3.94,0,0,1-.33-1.56,4.73,4.73,0,0,1,.13-1.34,6.77,6.77,0,0,1,.67-1.83A5.1,5.1,0,0,1,368.55,47.1Z"/><path class="cls-3" d="M350.92,42.36l-.08.68c0,.43-.1,1-.1,1.75a5.8,5.8,0,0,0,.39,2.23,2.68,2.68,0,0,0,.64.91c.14.12.31.22.46.33l.49.21a6,6,0,0,0,.69.16c.16,0,.29,0,.48,0a2.4,2.4,0,0,0,1-.4,5.34,5.34,0,0,0,.87-.78c.25-.3.48-.59.69-.89.39-.59.69-1.13.9-1.51s.32-.6.32-.6a4.38,4.38,0,0,1-.05.69,7.9,7.9,0,0,1-.45,1.8,6.94,6.94,0,0,1-.55,1.14,4.64,4.64,0,0,1-1,1.14,3.43,3.43,0,0,1-.7.47l-.4.19-.45.1a3.43,3.43,0,0,1-1,0,6.2,6.2,0,0,1-.75-.15h-.06l-.08,0h0l-.1,0-.2-.1-.4-.19a6.14,6.14,0,0,1-.71-.55,3.52,3.52,0,0,1-.86-1.47,4.45,4.45,0,0,1-.2-1.49,6.73,6.73,0,0,1,.17-1.26,7.7,7.7,0,0,1,.64-1.74A6.09,6.09,0,0,1,350.92,42.36Z"/><path class="cls-6" d="M400.15,46s-106-18.63-48.48-21.84c0,0,9.12-22.38,29.25-16.16C404.5,15.26,408.87,30.88,400.15,46Z"/><path class="cls-6" d="M351.67,24.14c-34.78-2.08-18.42,9,8.72,15.82a249.93,249.93,0,0,0,39.76,6C350.24,30.26,351.67,24.14,351.67,24.14Z"/><path class="cls-19" d="M321.39,121.63s-18,45.71-7.25,59,23,11.45,23,11.45l8.48-61.75Z"/><path class="cls-20" d="M321.39,121.63s-18,45.71-7.25,59,23,11.45,23,11.45l8.48-61.75Z"/><path class="cls-6" d="M417.37,103.68c-4.22-1.6-18.56-5.89-27.56-8.55-4.19,5.78-11.44,12-22.69,10.33-8.26-1.24-11.75-6.9-13.21-11.95l-17.85,3s-7.84,58.7-7.47,82.86c.08,4.93-2.79,6.08-2.35,7.62,3,12.1,66.92,19.25,72.58,13.61S422.14,105.5,417.37,103.68Z"/><path class="cls-6" d="M341.47,146.79c4.51-4.73-6.65-20.12-3.92-21.83,8.65-5.45-3.56-28.85-3.56-28.85s-8,.8-13.27,6.07c-1.75,1.74-10.38,24.13-13.92,30.28C312.44,140.3,329.47,144.12,341.47,146.79Z"/><path class="cls-7" d="M329.69,401.12l-2,26.9s-73.8,18.28-15.05-7.86l1.57-36.2Z"/><path class="cls-8" d="M322.54,420.67a33,33,0,0,0,5.7-.26l1.45-19.29L314.18,384l-1.52,34.88A28.22,28.22,0,0,0,322.54,420.67Z"/><path class="cls-9" d="M290.48,432c-6.93,7.13,37.24-3.68,37.24-3.68l.11-1.55C324.31,427.61,292.46,435.24,290.48,432Z"/><path class="cls-22" d="M311.48,420s3.67,0,5.24,2.31"/><path class="cls-22" d="M308.47,421.65s3.68,0,5.24,2.31"/><path class="cls-22" d="M305.1,423.35s3.67,0,5.24,2.31"/><path class="cls-7" d="M386,401.62l2,26.9s73.81,18.28,15.06-7.86l-1.57-36.2Z"/><path class="cls-8" d="M393.14,421.17a33,33,0,0,1-5.7-.26L386,401.62l15.51-17.16L403,419.34A28.12,28.12,0,0,1,393.14,421.17Z"/><path class="cls-9" d="M425.2,432.49c6.93,7.13-37.24-3.68-37.24-3.68l-.11-1.55C391.37,428.11,423.22,435.74,425.2,432.49Z"/><path class="cls-22" d="M404.2,420.52s-3.67,0-5.24,2.31"/><path class="cls-22" d="M407.2,422.15s-3.67,0-5.24,2.31"/><path class="cls-22" d="M410.57,423.85s-3.67,0-5.24,2.31"/><path class="cls-14" d="M323.42,201.9S306.32,320.82,309.67,417c0,0,17,4.8,22.36,1.2,4.62-22.82,5.49-67,12.42-100,6.53-31.1,13.88-67.87,13.88-67.87l3.37.44s18.29,156,21.38,167.39c17.72,3.6,23.89-2.41,23.89-2.41s-.64-182.94-5.58-213.29C394.91,162.7,323.42,201.9,323.42,201.9Z"/><path class="cls-15" d="M318.57,241.17c-4.77,43-11.05,114.11-8.9,175.86,0,0,17,4.8,22.36,1.2,4.62-22.82,5.49-67,12.42-100,6.11-29.07,12.93-63.1,13.79-67.41C344.32,249.15,330.85,246.26,318.57,241.17Z"/><path class="cls-14" d="M321.89,215S324,150.46,334,94l7.89-.5-5.26,45,49.44,5.5,7.89-49,6.84,2-4.21,48.5,9.47,35c-.56,18.07-3,43.64-2.63,52C404.46,259,321.89,215,321.89,215Z"/><polygon class="cls-7" points="386.98 257.81 300 248.07 308.67 159.37 395.64 169.11 386.98 257.81"/><polygon class="cls-16" points="331.48 251.59 300 248.07 308.67 159.37 340.15 162.9 331.48 251.59"/><polygon class="cls-17" points="326.58 176.56 318.04 175.6 318.83 160.34 327.36 161.29 326.58 176.56"/><path class="cls-19" d="M307.74,179.79s-4.25-.36-4.6,5.31,1.06,11,3.54,11.7,19.84,1.42.35-3.19c0,0,26.58,1.42,0-3.19,0,0,29.06,1.42,0-2.84,0,0,24.45,0,.36-2.83Z"/><path class="cls-19" d="M433.21,131.83s20.45,36.31,19.94,49.09-113.51,35.79-72.61,22.5c0,0-30.16,4.6-1.53-3.07,0,0-29.66,3.58-1-4.09,0,0-28.64,2.05,2.55-3.07,0,0-14.31-14.31,5.12-1L425,170.7s-16.87-31.2-17.9-34.26S424.52,113.94,433.21,131.83Z"/><path class="cls-20" d="M418.14,157.86c7.55-5.44,14.44-11.57,18.7-19.32-2.15-4.08-3.63-6.71-3.63-6.71-8.69-17.89-27.1,1.54-26.08,4.61C407.71,138.17,413.34,148.87,418.14,157.86Z"/><path class="cls-6" d="M424.69,108.12c-2.28-2.89-14.44-7.2-23.18-10-.5,8.27,1.42,17.27.72,25.53-.13,1.52-.24,3-.35,4.54l.47.42c2.5,2,4.46,16.46,8.36,21.66a65.64,65.64,0,0,0,26.59-17.89C434.54,125.85,426.21,110.05,424.69,108.12Z"/><path class="cls-18" d="M376.73,66.1c-3.21-.11-3.61.25-6.65-.87l-15.61-8c-1.77-.65-4.85,2.46-6.65,3l-6.23-.61L340.42,67c-3.55,16.39,6.79,26.73,19.63,27.2,5.54.19,13.14-.54,18.33-2.8l.14-3.68,2.56-22.42Z"/><path class="cls-9" d="M378.42,91.11c.14,0,.2-.13.3-.26A103.48,103.48,0,0,0,392.49,68c0-.1-.34,0-1.06,0l-.6,0a87,87,0,0,1-12.37,20.31c-.35.44-.28,1.1-.26,2C378.21,90.65,378.18,90.87,378.42,91.11Z"/><path class="cls-9" d="M380.68,65.4a.62.62,0,0,1,.14-.23c5.46-6,10.67-10.51,10.48-10.09-.07.05-4,4.87-9.32,10.42a1.13,1.13,0,0,1-1,.25C380.77,65.71,380.61,65.61,380.68,65.4Z"/><polygon class="cls-7" points="692.67 427.47 655.75 428.77 625.19 427.55 623.53 360.56 691.53 359.23 692.67 427.47"/><polygon class="cls-16" points="655.75 428.88 625.19 427.55 623.53 360.56 653 359.66 655.75 428.88"/><polygon class="cls-17" points="641.39 373.58 633.1 373.22 633.35 360.71 641.64 361.07 641.39 373.58"/><path class="cls-23" d="M575.15,399.88l-2.09,27.38s-76.32,18.61-15.57-8l1.62-36.86Z"/><path class="cls-8" d="M567.75,419.78a35.35,35.35,0,0,0,5.9-.26l1.5-19.64-16-17.47-1.57,35.51A29.28,29.28,0,0,0,567.75,419.78Z"/><path class="cls-9" d="M534.61,431.31c-7.17,7.26,38.5-3.75,38.5-3.75l.12-1.58C569.59,426.85,536.66,434.62,534.61,431.31Z"/><path class="cls-24" d="M556.32,419.12s3.8,0,5.42,2.35"/><path class="cls-24" d="M553.22,420.78s3.79,0,5.41,2.35"/><path class="cls-24" d="M549.73,422.51s3.8,0,5.42,2.35"/><path class="cls-7" d="M634.92,403.71l-2.1,27.38s-76.31,18.61-15.56-8l1.62-36.86Z"/><path class="cls-8" d="M627.52,423.61a36.45,36.45,0,0,0,5.9-.26l1.5-19.64-16-17.48-1.56,35.52A29.75,29.75,0,0,0,627.52,423.61Z"/><path class="cls-9" d="M594.38,435.13c-7.17,7.26,38.5-3.75,38.5-3.75l.11-1.58C629.36,430.67,596.43,438.44,594.38,435.13Z"/><path class="cls-24" d="M616.09,422.94s3.79,0,5.42,2.35"/><path class="cls-24" d="M613,424.6s3.8,0,5.42,2.35"/><path class="cls-24" d="M609.5,426.34s3.79,0,5.42,2.34"/><path class="cls-14" d="M567.29,178.79S551.66,309.4,554.72,415.08c0,0,18.68,5.44,23.61,1.48,4.23-25.06,3.66-73.73,10-110,6-34.15,8.33-67.67,8.33-67.67h2s12.85,168.47,15.67,181c16.2,4,21.33-.66,21.33-.66s7.4-206.5,2.88-239.83C632.62,135.73,567.29,178.79,567.29,178.79Z"/><path class="cls-13" d="M580.24,171.35c-7.68,4-13,7.44-13,7.44s-.93,7.73-2.28,20.93c3,.93,7.27,2.14,12.42,3.34C578.28,192.48,579.17,181.91,580.24,171.35Z"/><path class="cls-13" d="M620.35,160c-10.12-1-22.62,3.17-33,7.87-1.28,12.19-2.3,24.41-3.27,36.62a166.79,166.79,0,0,0,36.5,3.25C620.62,191.83,620.39,175.91,620.35,160Z"/><path class="cls-13" d="M627.43,207.36a113,113,0,0,0,12.94-1.78c-.52-11.83-1.13-21-1.83-26.18-1.31-9.71-5.57-15.12-11.39-17.68C627.21,176.93,627.42,192.15,627.43,207.36Z"/><path class="cls-25" d="M621.17,90.47c.81.58,5.84,1.8,11.62,3.06-13.23,16.74-41.23,14.66-57,.4,6.76-1.17,14.41-2.47,16.42-2.73C596,90.71,594,70.43,594,70.43l29.27-2.93S619.1,89,621.17,90.47Z"/><path class="cls-26" d="M592.89,90.88c9.83-.36,19.48-1.52,27.74-4.74.31-6.69,2.6-18.64,2.6-18.64L594,70.43S595.77,88.22,592.89,90.88Z"/><path class="cls-19" d="M630.68,60.78s-1.19,14.13-13.41,12.93,6-13.41,6-13.41Z"/><path class="cls-25" d="M625.57,30.77S617.27,16.11,599,20.48s-19.63,20.84-20.74,35.25,3.08,30.38,20.05,29.83C611.06,85.14,632.76,80.18,625.57,30.77Z"/><path class="cls-25" d="M625.79,47.41s.8-2.72,5.15-.1c5.53,3.33,1.24,17.29-5.21,16.36S625.79,47.41,625.79,47.41Z"/><path class="cls-19" d="M627.17,16.55c-.34-.1-7.54,2.58-2.26,2.5-4.2,5.57-3.59,6.74-10.09,8.68C612.54,38.54,621,45.4,621,45.4l.62,11.44,3.11,0s-1.08-8.71,2.63-9.88,5.37,3.14,5.37,3.14C634,38.52,638.84,19.71,627.17,16.55Z"/><path class="cls-27" d="M597.85,42.51a7.66,7.66,0,0,1,3.2-3,8.85,8.85,0,0,1,4.43-1,8.56,8.56,0,0,1,6,2.8,8.61,8.61,0,0,1,1.21,1.84c-.74-.19-1.35-.49-2-.69s-1.23-.45-1.85-.56a14.1,14.1,0,0,0-3.52-.56,16.39,16.39,0,0,0-3.59.26C600.55,41.82,599.28,42.13,597.85,42.51Z"/><path class="cls-27" d="M579.53,43.28a5.66,5.66,0,0,1,1.84-3,5.85,5.85,0,0,1,3.47-1.48,5.72,5.72,0,0,1,3.66,1A6.73,6.73,0,0,1,589.84,41a7.8,7.8,0,0,1,.9,1.52,12.12,12.12,0,0,1-1.61-.55c-.53-.12-1-.35-1.46-.44a8,8,0,0,0-2.65-.29C583.31,41.31,581.6,42.16,579.53,43.28Z"/><path class="cls-28" d="M592.66,44.21c-.79,2.9-1.44,5.79-2.09,8.69l-.93,4.35-.89,4.38-.52-.66c3,.3,6.08.65,9.11,1.15-3.07.11-6.13.08-9.18,0h-.6l.07-.64c.18-1.49.38-3,.67-4.46s.61-3,1-4.4a45,45,0,0,1,1.4-4.3A24.3,24.3,0,0,1,592.66,44.21Z"/><path class="cls-28" d="M627.07,60.79a5.08,5.08,0,0,0,1.31-2.29,1.32,1.32,0,0,0-.22-1.06,2.44,2.44,0,0,0-.93-.68l-.2-.11,0-.22a21.52,21.52,0,0,1-.26-3.31,8.64,8.64,0,0,1,.56-3.38,2.28,2.28,0,0,1,.61-.8,1.41,1.41,0,0,1,1.06-.3,3.58,3.58,0,0,1,1.64.78,3.24,3.24,0,0,1,1,3.13,3.29,3.29,0,0,0-1.37-2.64,3.59,3.59,0,0,0-1.34-.47c-.35,0-.58.24-.76.68a9.14,9.14,0,0,0-.41,3c0,1.06,0,2.13.12,3.19l-.23-.33a3,3,0,0,1,1.17,1.06,1.9,1.9,0,0,1,.14,1.59,3.45,3.45,0,0,1-.78,1.24A5.43,5.43,0,0,1,627.07,60.79Z"/><path class="cls-9" d="M608.07,66.26c1.21-.13-11.27,11.17-18.92,0"/><path class="cls-19" d="M597,62.21s12-2.4,13.71,4.24c0,0-14.56,4.43-23.39-.19C587.34,66.26,585.32,61.64,597,62.21Z"/><path class="cls-6" d="M634.19,39.73S501.11,22.16,581.93,27.24c0,0,5.12-23.07,26.31-20.63C633.06,9.48,640.2,23.7,634.19,39.73Z"/><path class="cls-6" d="M581.93,27.24c-80.82-5.08,52.26,12.49,52.26,12.49C577.7,31.18,581.93,27.24,581.93,27.24Z"/><path class="cls-6" d="M563,180c-2-24.53-5.77-83.82-5.77-83.82l24.44-4.39c5.57,5.78,9.19,9.93,17.63,10.77,10.47,1,22-3.6,26.68-11.16a159.25,159.25,0,0,1,16.31,4.33c5.28,1.57,3.88,95.8-1.87,101.86S565.07,200,561,187.89C560.42,186.34,563.45,185,563,180Z"/><path class="cls-15" d="M631.12,142c-15.74,8.17-31.13,17-48.82,21.48a170.15,170.15,0,0,1-20.25,3.72c.35,4.82.69,9.19,1,12.8.41,5-2.62,6.34-2,7.89,4.07,12.12,73.7,15.75,79.46,9.7,3.55-3.75,9.91-40.28,13-68C646.4,134.21,638.61,138.11,631.12,142Z"/><polygon class="cls-14" points="634.33 153.89 616.33 150.56 569.66 147.89 569.66 182.56 619.66 189.89 634.33 153.89"/><path class="cls-14" d="M650.33,149.23s3,0-.46,18.42a244.11,244.11,0,0,1-6.57,26.28s-51,4.63-50.3-8-.67-41.33,6.66-41.33S650.33,149.23,650.33,149.23Z"/><path class="cls-14" d="M579.33,142.23s12.33-1.21,11,4.07,2,41.49-4.67,42.25-22-3.77-22-3.77-3.11.08-4-4.53c-1.43-7.44-3.33-37,0-37S579.33,142.23,579.33,142.23Z"/><path class="cls-14" d="M637.35,93.88s-8.52,26.35-11,54.85l-5.5-1s6.5-40,13.5-54.5Z"/><path class="cls-14" d="M572,133.17H567c.07-12.52.78-29.9,3.51-39.81l3.34-.67A223.1,223.1,0,0,0,572,133.17Z"/><polygon class="cls-7" points="587.39 198.72 508.06 199.43 508.1 133.72 587.43 133 587.39 198.72"/><polygon class="cls-16" points="545.01 199.2 508.06 199.43 508.1 133.72 545.05 133.49 545.01 199.2"/><polygon class="cls-17" points="530.31 147.3 520.29 147.36 520 133.39 530.02 133.32 530.31 147.3"/><path class="cls-25" d="M558.34,124.82s-44.08,8.72-45.47,10.75l17.11,33c20.2-.05,10,2.72,4.89,3.88,29,19.62,2,6.57,2,6.57,26.93,17.23-1.78,3.73-1.78,3.73,28.45,19.68-1.87,1.83-1.87,1.83,29.72,30.61-34.91-21.71-44.84-55.13-3.71-12.52,66.32-29.9,66.32-29.9Z"/><path class="cls-26" d="M525.85,108.23c15.25-5.1,28.85-8.67,28.85-8.67l3.64,25.26s-9.65,1.91-20.06,4.15C533.28,122.6,528.53,115.82,525.85,108.23Z"/><path class="cls-6" d="M557.27,96.18a14.4,14.4,0,0,1,5-.89c-1,10.6-.07,21.26,0,31.89-4.11,1.15-13,4.88-20,4.24-7.34-10-9.09-17.25-10.54-26.82C537.58,100.45,555,97,557.27,96.18Z"/><path class="cls-25" d="M644.47,158.47l-49.06,23.36c-15.42-11.74-7.81-1.83-3.6,1.28-42.48,4.12-5.72,3.8-5.72,3.8-33.76,5.65.73,3.28.73,3.28-32.16,5.37.5,2.47.5,2.47-47.32,10.9,65.76-3,70-17.13.86-2.87,2.17-15.45-1.85-20.76Z"/><path class="cls-25" d="M657.33,175.53c3.71-22.4,1.41-61.84,1.41-61.84l-25.14,4.36s4.24,35.38,4.11,44.49Z"/><path class="cls-26" d="M636.62,146.07c-1.22-13-3-28-3-28l25.14-4.36s.9,15.34.67,32.32A52,52,0,0,1,636.62,146.07Z"/><path class="cls-6" d="M633.64,141.86c-.6-6.48.21-16.45-.85-19.43-3.37-9.45,4.56-28.55,4.56-28.55s20.65,4,22.31,18.35c.29,2.43,5.35,20.93,4.34,28C654.84,143.33,645.93,143.76,633.64,141.86Z"/><polygon class="cls-7" points="593.46 434.3 509.28 435.05 509.33 365.33 593.5 364.57 593.46 434.3"/><polygon class="cls-16" points="548.49 434.81 509.28 435.05 509.33 365.33 548.54 365.09 548.49 434.81"/><polygon class="cls-17" points="532.89 379.74 522.26 379.81 521.95 364.98 532.58 364.91 532.89 379.74"/><path class="cls-9" d="M613.18,82.21a.61.61,0,0,0,.34-.2,91.22,91.22,0,0,0,17.54-19.94c.24-.76-.31-.79-.83-.28s-.63.66-.73.63c-.09.13-5,7.78-15.72,16.92-.43.37-.49,1-.65,2C613.06,81.71,613,81.92,613.18,82.21Z"/><path class="cls-18" d="M614.19,64.2c-3.21-.12-3.6-1-6.65-2.08l-16.8-7.93c-1.76-.65-3.66,3.6-5.46,4.15l-7.17-.66-.84,7.4c-3.55,16.39,9.76,22.85,22.6,23.31,5.54.2,13.93-5.55,18.67-10.84h0V63.39Z"/><path class="cls-9" d="M617.29,63.51a.44.44,0,0,1,.07-.19c3.59-5.31,7.32-9.54,7.25-9.2-.05,0-2.44,4.24-6.05,9.23a1.23,1.23,0,0,1-.89.36C617.47,63.72,617.28,63.67,617.29,63.51Z"/><ellipse class="cls-5" cx="586.42" cy="48.7" rx="1.29" ry="3.82"/><ellipse class="cls-5" cx="608.16" cy="49.67" rx="1.29" ry="3.82"/></svg>