<svg id="Layer_1" data-name="Layer 1" xmlns="http://www.w3.org/2000/svg" viewBox="0 0 999 171"><defs><style>.cls-1{fill:#fff;}.cls-2{fill:#8ed0b9;}.cls-3{fill:#243873;}</style></defs><title>border</title><path class="cls-1" d="M0,88.5s216.72-69.3,485,0c271,70,514-50,514-50v-22s-243,120-514,50C216.72-2.8,0,66.5,0,66.5Z"/><path class="cls-2" d="M.5,72.5s216.72-69.3,485,0c271,70,514-50,514-50V.5s-243,120-514,50c-268.28-69.3-485,0-485,0Z"/><path class="cls-3" d="M999.5,47.5S763,185.12,486.46,135.4C212.75,86.19.9,171.36.9,171.36L.5,80.5s216.72-69.3,485,0c271,70,514-50,514-50Z"/></svg>