<svg xmlns="http://www.w3.org/2000/svg" viewBox="0 0 601.03 557.42"><defs><style>.cls-1{isolation:isolate;}.cls-2,.cls-8{fill:#5896e6;}.cls-2{opacity:0.2;}.cls-2,.cls-25,.cls-3{mix-blend-mode:screen;}.cls-16,.cls-3{fill:#fff;}.cls-15,.cls-4{fill:#8ed0b9;}.cls-20,.cls-5{fill:#243873;}.cls-6,.cls-7{fill:#4b4762;}.cls-19,.cls-7{opacity:0.5;}.cls-10,.cls-17,.cls-19,.cls-20,.cls-22,.cls-26,.cls-7,.cls-9{mix-blend-mode:multiply;}.cls-9{fill:#5883e6;}.cls-22,.cls-9{opacity:0.3;}.cls-10,.cls-11{fill:#f9c587;}.cls-12{fill:#525450;}.cls-13{fill:#cfebff;}.cls-14{fill:#ffa639;}.cls-15{stroke:#fff;stroke-miterlimit:10;}.cls-17{fill:#fff1dd;}.cls-18,.cls-19{fill:#8ee2ff;}.cls-20,.cls-25{opacity:0.4;}.cls-21{fill:#cdb576;}.cls-22,.cls-24{fill:#d7bf7c;}.cls-23,.cls-26{fill:#e8cc8b;}.cls-25{fill:#ffeaaa;}</style></defs><title>person</title><g class="cls-1"><g id="OBJECTS"><path class="cls-2" d="M207,13.07c.39,7,16.44,11.15,21.68,13.21Q250.8,35,273.22,43a121.62,121.62,0,0,1,20,9.07c-1.8-7.47-7.41-28.44-15.4-37C272,8.94,251.05-.11,229.26,3.56a64.46,64.46,0,0,0-22.48,8.12A10,10,0,0,1,207,13.07Z"/><path class="cls-3" d="M99,134.78C54,129.37-2.37,181.27,7,271.12,20,394.7,113.72,447.85,195.76,467.39S391.82,469,463.13,424,589.29,308.17,592.52,203.22C595.09,120,535.37-8.42,407.43,50.79,310.32,95.72,346,173.11,237.29,181.08,191.51,184.43,153.66,141.36,99,134.78Z"/><path class="cls-4" d="M460.57,409.07c7.59,1.82,15.75-1.82,20.31-8.33s6.91-19.28,3.23-30.89c-6.17-19.45-24.67-24.18-39.76-22.76-9.59.89-19.71,6.61-26.36,13.83-3.36,3.65-6.13,8.14-6.83,13.24s1,10.85,5,13.91c3.22,2.45,7.35,2.89,11.26,3.24,3.59.33,8.33-.12,11.76,1.07,2.88,1,4.18,3.53,6.31,6C449.63,403.15,454.5,407.62,460.57,409.07Z"/><path class="cls-5" d="M451.94,334.41a20.73,20.73,0,0,0-20.71,20.72c0,10.88,18.41,37.34,19.2,38.46a1.85,1.85,0,0,0,3,0c.78-1.12,19.2-27.58,19.2-38.46A20.74,20.74,0,0,0,451.94,334.41Zm0,54.85c-5.86-8.7-17-26.76-17-34.13a17,17,0,0,1,34,0C469,362.49,457.81,380.56,451.94,389.26Z"/><path class="cls-5" d="M451.94,345.61a7.76,7.76,0,1,0,7.76,7.76A7.77,7.77,0,0,0,451.94,345.61Zm0,11.82a4.06,4.06,0,1,1,4.07-4.06A4.06,4.06,0,0,1,451.94,357.43Z"/><path class="cls-4" d="M81.46,152.66c-7.59-1.84-15.76,1.77-20.33,8.26s-7,19.26-3.34,30.88c6.1,19.48,24.58,24.26,39.68,22.9,9.59-.86,19.73-6.54,26.41-13.74,3.37-3.63,6.15-8.12,6.87-13.22s-1-10.85-5-13.92c-3.22-2.47-7.34-2.92-11.25-3.29-3.59-.33-8.32.1-11.76-1.1-2.87-1-4.16-3.55-6.29-6C92.38,158.62,87.52,154.14,81.46,152.66Z"/><path class="cls-5" d="M119.7,158.26H70.4a1.85,1.85,0,0,0-1.85,1.85v37A1.85,1.85,0,0,0,70.4,199h38.14l9.83,10.22a1.82,1.82,0,0,0,1.33.57,1.84,1.84,0,0,0,1.85-1.85V160.11A1.85,1.85,0,0,0,119.7,158.26Zm-1.85,45.09-7.19-7.48a1.86,1.86,0,0,0-1.33-.57H72.25V162h45.6Z"/><path class="cls-5" d="M82.48,175.44h25.14a1.85,1.85,0,1,0,0-3.7H82.48a1.85,1.85,0,0,0,0,3.7Z"/><path class="cls-5" d="M82.48,185.87h25.14a1.85,1.85,0,1,0,0-3.69H82.48a1.85,1.85,0,1,0,0,3.69Z"/><path class="cls-4" d="M115,395.92c2.94-4.61,3.89-10.85,1.44-15.48-2-3.72-5.69-5.87-9.24-7.84-3.27-1.82-8-3.38-10.7-6-2.29-2.16-2.39-5.15-3.32-8.42-1.79-6.33-4.43-12.67-9.54-16.61-6.4-4.93-15.77-4.85-23-.5s-15.17,15.66-16.86,28.37C41,390.79,56.42,403.1,71.38,408.07c9.51,3.16,21.67,1.9,31.21-2.26C107.41,403.71,112,400.54,115,395.92Z"/><path class="cls-5" d="M105.71,337.82h-5.2v-1.29a6.86,6.86,0,0,0-13.72,0v1.29H74.48v-1.29a6.86,6.86,0,0,0-13.72,0v1.29H55.55a5.74,5.74,0,0,0-5.73,5.73v53.72a1.84,1.84,0,0,0,1.85,1.84h57.92a1.84,1.84,0,0,0,1.85-1.84V343.55A5.74,5.74,0,0,0,105.71,337.82Zm-15.23-1.29a3.17,3.17,0,0,1,6.33,0v6.28a3.17,3.17,0,1,1-6.33,0Zm-26,0a3.16,3.16,0,1,1,6.32,0v6.28a3.16,3.16,0,1,1-6.32,0Zm43.29,58.89h-5.61l5.61-5.6Zm-8.22-2.62v-5.6h5.6Zm8.22-9.3H97.68a1.85,1.85,0,0,0-1.85,1.85v10.07H53.52V358.17h54.23Zm0-29H53.52V343.55a2,2,0,0,1,2-2h5.21v1.29a6.86,6.86,0,1,0,13.72,0v-1.29H86.79v1.29a6.86,6.86,0,0,0,13.72,0v-1.29h5.2a2,2,0,0,1,2,2Zm-47,12.87a1.85,1.85,0,0,1,1.85-1.85h6.75a1.85,1.85,0,1,1,0,3.7H62.61A1.85,1.85,0,0,1,60.76,367.34Zm14.65,0a1.85,1.85,0,0,1,1.85-1.85H84a1.85,1.85,0,0,1,0,3.7H77.26A1.85,1.85,0,0,1,75.41,367.34Zm14.65,0a1.85,1.85,0,0,1,1.85-1.85h6.75a1.85,1.85,0,1,1,0,3.7H91.91A1.85,1.85,0,0,1,90.06,367.34Zm-29.3,9a1.85,1.85,0,0,1,1.85-1.85h6.75a1.85,1.85,0,1,1,0,3.7H62.61A1.85,1.85,0,0,1,60.76,376.35Zm14.65,0a1.85,1.85,0,0,1,1.85-1.85H84a1.85,1.85,0,1,1,0,3.7H77.26A1.85,1.85,0,0,1,75.41,376.35Zm14.65,0a1.85,1.85,0,0,1,1.85-1.85h6.75a1.85,1.85,0,1,1,0,3.7H91.91A1.85,1.85,0,0,1,90.06,376.35Zm-29.3,9a1.85,1.85,0,0,1,1.85-1.85h6.75a1.85,1.85,0,1,1,0,3.7H62.61A1.85,1.85,0,0,1,60.76,385.35Zm14.65,0a1.85,1.85,0,0,1,1.85-1.85H84a1.85,1.85,0,1,1,0,3.7H77.26A1.85,1.85,0,0,1,75.41,385.35Z"/><path class="cls-4" d="M465.75,102.83A15.25,15.25,0,0,0,452,96.69c-4.58.45-8.67,2.85-12.49,5.16-3.52,2.13-7.58,5.53-11.52,7-3.3,1.21-6.17.34-9.75.06-6.94-.53-14.36-.37-20.89,2.61-8.18,3.74-13.29,11.53-13.2,18.91s6.33,17.58,17.34,23c18.47,9.14,38.6.24,51.55-10.58a45,45,0,0,0,15.14-26.59C468.88,111.6,468.46,106.75,465.75,102.83Z"/><path class="cls-5" d="M457.79,97.44a2.15,2.15,0,0,0-.05-.34.13.13,0,0,0,0-.06,1.74,1.74,0,0,0-.14-.38s0-.06-.06-.1a1.88,1.88,0,0,0-.16-.23l-.09-.11-.21-.19L457,96,457,96l-.26-.14-.11,0h0l-32-11.34a1.85,1.85,0,0,0-1.23,0l-32,11.34h0l-.12.06-.25.13-.05,0-.06,0a2,2,0,0,0-.21.19l-.09.11a1.19,1.19,0,0,0-.16.23s-.05.07-.06.1a1.74,1.74,0,0,0-.14.38s0,0,0,.06,0,.23,0,.34v41.27a1.84,1.84,0,0,0,1.23,1.74l32,11.34h0a1.91,1.91,0,0,0,.58.1,2,2,0,0,0,.59-.1h0l32-11.34a1.84,1.84,0,0,0,1.23-1.74V97.44Zm-33.85,9.42-5.67-2,26.46-9.37,5.67,2Zm-19.41-4.26,30.15-10.68,4.51,1.6-27.07,9.59-.09,0-.17.08-.15.09-.15.11-.13.12-.12.13-.1.14a.86.86,0,0,0-.1.16s-.05.09-.07.15l0,0,0,.06s0,0,0,.08,0,.1,0,.15,0,.05,0,.07a.68.68,0,0,0,0,.14s0,.09,0,.14V117.1l-6.36-2.26Zm19.41-14.48L429.15,90l-26.46,9.37-5.21-1.84Zm-30.14,12,7,2.5v13.55a1.86,1.86,0,0,0,1.23,1.74l10.06,3.57a1.86,1.86,0,0,0,.61.1,1.81,1.81,0,0,0,1.07-.34,1.84,1.84,0,0,0,.78-1.51V107.47l7.52,2.66v37.3l-28.3-10Zm60.29,37.3-28.3,10v-37.3l28.3-10Z"/><path class="cls-6" d="M262.67,447.21c3,36.14,2.39,83.94,4.37,107.92h33.47c5.78-27.33,18.3-91,28.23-172.71,4.37-35.92-132.59-29.94-146.94-5.81,0,0,18.4,117.07,30.54,178.52h39.52C254.72,527.26,260.12,478.07,262.67,447.21Z"/><path class="cls-7" d="M221.78,418.59c15.35,2.5,42.38,1.8,58.37-.43,21.55-3,34.76-9.49,46.47-18.86q1.08-8.31,2.12-16.88c4.37-35.92-132.59-29.94-146.94-5.81,0,0,18.4,117.07,30.54,178.52h20.12C230.4,516.7,224.16,449.57,221.78,418.59Z"/><path class="cls-7" d="M283.6,511c.12-12.13-1-34.21-1.73-46.32-.61-9.72-12.93-17.89-19.34-29.62-.28,6.72-.07,14.68.14,12.13,3,36.14,2.39,83.94,4.37,107.92h16.7C283.61,540.69,283.44,527.37,283.6,511Z"/><path class="cls-8" d="M291,180.49s33.52,6.93,60.57,30.46c24.18,21,63.22,67.54,24.18,128.5l-24.23-6.2s-9.17-70.06-32.17-79.54S282.66,196.91,291,180.49Z"/><path class="cls-5" d="M212.73,180.49S246,214.9,259.27,211,291,180.49,291,180.49s21,8.55,37.47,42.26c13.37,27.37,24.67,82.21.24,159.67-36.45,32.11-132.77,23.59-149-5.89C161.06,303.81,143.33,219.7,212.73,180.49Z"/><path class="cls-9" d="M328.5,222.75C312,189,291,180.49,291,180.49l-.54.77c.6.38,1.18.78,1.74,1.21,6.87,5.34,9.54,14,10.68,22.74a8.72,8.72,0,0,1,5.41,6.14c10.4,37.5,20.05,75.94,12.92,115a7.72,7.72,0,0,1-3.44,5.2c4.09,10.67,11.74,19.34,6.43,31.71C319.2,375,307,380,295.46,383.15c-14.56,3.91-29.91,2.16-44.75,4.11-13.66,1.79-27.61,2.83-39.8-4.82-5.44-3.41-6.08-10.31-1.93-15,11.56-13.06,33.43-11.2,49.09-13.87l2.35-.38-.16-.06a144.56,144.56,0,0,1-23.61-8.29c-32.3-14.17-42-51.52-44.81-83.54-2.17-24.94-.1-53.73,13-75.92-60.12,41-43.07,121.31-25.14,191.14,16.24,29.48,112.56,38,149,5.89C353.17,305,341.87,250.12,328.5,222.75Z"/><path class="cls-10" d="M216.61,151.79v29.74s27.81,34.58,44.53,28.76,27.71-26.5,27.71-26.5L285.75,150Z"/><path class="cls-11" d="M308.85,95.39c-1.53-14.39-9-8.17-9-8.17l0,.37c-2.53-15-5.84-27.47-5.84-27.47C247.15,7.87,187.76,74.22,184.77,83.27s2.09,33,2.09,33c-3.73-3.23-14.37,1.29-7.58,15.51S195,139.41,195,139.41c19.05,30.05,57.83,30.7,68.93,28.54,6-1.17,29.09-16.8,36.52-36.2,1.92-5,2.42-12.19,2.1-20.11C303.85,111.21,310.24,108.37,308.85,95.39Z"/><path class="cls-12" d="M169,83.21c-.3,19.13,5,32.3,8.73,36.42a6.93,6.93,0,0,1,9.1-3.39c4,12.77,8.17,8,8.17,8s-8.72-30.36,5.5-42.57c4.11-3.54,35.48-9.7,58.92-23.3a149.44,149.44,0,0,0,15.08-11.2C243.06,17.7,169.25,69.51,169,83.21Z"/><path class="cls-12" d="M216.05,97.71a.47.47,0,0,1-.17,0,.64.64,0,0,1-.45-.8c.1-.37,2.63-9.17,8.44-12a8.79,8.79,0,0,1,7.4-.15.65.65,0,0,1-.48,1.2,7.55,7.55,0,0,0-6.35.11c-5.3,2.63-7.74,11.16-7.77,11.24A.64.64,0,0,1,216.05,97.71Z"/><path class="cls-12" d="M282.19,77.76a.64.64,0,0,1-.45-.18c-.33-.32-8.07-7.76-15.89-1.51a.65.65,0,0,1-.91-.1.64.64,0,0,1,.1-.91c8.72-7,17.52,1.51,17.6,1.59a.65.65,0,0,1,0,.92A.62.62,0,0,1,282.19,77.76Z"/><path class="cls-12" d="M232.84,97.68c1.22,3,.84,6-.84,6.66s-4-1.2-5.23-4.21-.84-6,.84-6.66S231.63,94.68,232.84,97.68Z"/><path class="cls-12" d="M277.09,87.49c0,3.23-1.46,5.86-3.27,5.86s-3.28-2.63-3.28-5.86,1.47-5.86,3.28-5.86S277.09,84.25,277.09,87.49Z"/><path class="cls-4" d="M215.15,165.53c15.2,12.28,24.08,18.34,37.58,24.72,3.85,1.83,6.54,11.72,6.54,20.7-23.27,3.22-46.54-30.46-46.54-30.46S212.67,163.52,215.15,165.53Z"/><path class="cls-4" d="M288.09,167.24c-10.39,11.22-19.67,17.45-27.22,22.85-3.2,2.3-1.6,11.88-1.6,20.86,19.39,2.19,31.76-30.46,31.76-30.46S290.13,165,288.09,167.24Z"/><path class="cls-13" d="M371.31,346.51s-18.42,10.34-21.42,11-9.17,3.66-14.83.64-21.84-11.63-20-14.43,8-5,11-1.94,17.05,3.45,17.05,3.45,13.45-2.81,14.95-3.45S371.31,346.51,371.31,346.51Z"/><path class="cls-14" d="M348.89,341.19l20.1,7s7.89,0,10.85-14.54c-8.95-9.56-27.12-5.69-27.12-5.69Z"/><path class="cls-4" d="M259.27,211s10.87,185.56,9.56,190.22-13.51,1.71-13.51,1.71-7.84-173.52-11.08-196.24C250.4,209.75,259.27,211,259.27,211Z"/><path class="cls-4" d="M222.24,5.12c-11.71,2-37.53,11.82-47.67,31.92-8.7,17.26-6.64,48-6,48.65S175.72,89.8,189,89.8C189,89.8,212.7,17.54,222.24,5.12Z"/><path class="cls-15" d="M229.26,3.56c-21.16,3.56-37.25,16.15-40,29.55-4,19.67,0,55.24,0,55.24s20.45-28.94,49.44-36.73c25.93-7,39.79-4.45,55.15,3.17,0,0-6.21-29.19-16-39.65C272,8.94,251.05-.11,229.26,3.56Z"/><path class="cls-15" d="M189,89.8s30.64.84,39.13-9.3,21.33-31.82,43.59-34.64c-7.06-.12-31.57,1.17-46.93,9C205.65,64.69,193,77.92,189,89.8Z"/><path class="cls-15" d="M260.55,47.1s10.38,1,23.84,10.53c10.46,7.4,10.49,11.47,12.85,12.63,8.8,4.32,18.68-3,15.47-8.06C310.7,59,290.19,41,260.55,47.1Z"/><path class="cls-16" d="M208,120.77a1.13,1.13,0,0,1-.36-.06,119.29,119.29,0,0,0-20.82-4.47,9.15,9.15,0,0,0-4.74-.33,8.65,8.65,0,0,0-2.16,1,1.78,1.78,0,0,1,.42-2.1c.59-.32,6.34-3,28,3.37a1.3,1.3,0,0,1,.88,1.6A1.32,1.32,0,0,1,208,120.77Z"/><path class="cls-16" d="M224.22,161.27a1.33,1.33,0,0,1-.57-.14c-16.13-7.94-30.53-19.93-30.67-20a1.33,1.33,0,0,1-.38-.54,9.26,9.26,0,0,0,1.25-.48c.73-.35,1.06-.61,1.18-.65a171.2,171.2,0,0,0,29.76,19.4,1.3,1.3,0,0,1-.57,2.46Z"/><path class="cls-16" d="M300.59,103.31a1.22,1.22,0,0,1-.32,0,1.29,1.29,0,0,1-.93-1.57c1.66-6.47.6-15.06.58-15.15a1.3,1.3,0,0,1,2.57-.33c.05.38,1.13,9.18-.64,16.12A1.3,1.3,0,0,1,300.59,103.31Z"/><path class="cls-17" d="M248.77,88.39s-3.94,15.42-1.62,21.43,7.64-3.46,7.64-3.46Z"/><path class="cls-18" d="M208,119.47c.08-1,44-22.3,55-23.59s35.88,2.26,38.14,4.85,2.91,23.59,0,36.2-22.3,31.15-30.06,33.32-32.86.35-43.24-7S207.19,131.5,208,119.47Z"/><path class="cls-19" d="M260.22,125.33c-1.54-5.78-5.82-19.61-6.63-22.17-2.19.78-2.08.68-4.66,1.76C249.2,105.26,255,128.48,260.22,125.33Z"/><path class="cls-19" d="M253,154c-12.34-2.81-23.57-7.33-33-16-7.3-6.68-12-19-12-18.57-.85,12,9.42,36.36,19.79,43.74s35.48,9.2,43.24,7c4.33-1.21,12.29-7.53,19-15.07C277.71,157.6,263.09,156.27,253,154Z"/><path class="cls-5" d="M212.73,180.49s-45.08,7-73.93,57.1C100,305,137.51,406.52,247.76,373.65l-10.63-24S163,344,181.8,241C188.68,203.48,209,188.27,212.73,180.49Z"/><path class="cls-20" d="M152.66,228a135.84,135.84,0,0,1,22-30.33,124.13,124.13,0,0,0-35.88,39.94C104.19,297.71,130.32,385,214.69,379.8,141.41,374.84,120,288.49,152.66,228Z"/><path class="cls-11" d="M252.23,352l11.4,17.42s11-4.29,14.76-3.19,11.33,5.07,19,2.95,29.43-8.15,27.41-11.22-9.67-6.16-13.88-3.63-22.46,2-22.46,2-16.77-6.16-18.62-7S252.23,352,252.23,352Z"/><path class="cls-4" d="M255.32,350.58s5.85,13.26,10.69,17.47c-7.1,6.13-23.36,7-23.36,7l-5.52-25.44Z"/><polygon class="cls-21" points="236 255.46 247.78 342.69 292.48 364.57 286.7 278.24 236 255.46"/><path class="cls-22" d="M241,292.38l6.79,50.31,44.7,21.88-3.08-46C266.73,376.6,241,292.38,241,292.38Z"/><polygon class="cls-23" points="236 255.46 344.56 240.15 404.97 259.74 286.7 278.24 236 255.46"/><polygon class="cls-24" points="404.97 259.74 393.41 347.72 292.48 364.57 286.7 278.24 404.97 259.74"/><path class="cls-22" d="M394.5,339.48l-1.09,8.24L292.48,364.57,288.83,310C307.64,357.19,394.5,339.48,394.5,339.48Z"/><polygon class="cls-25" points="251.95 262.62 267.09 269.34 384.15 252.99 363.53 246.3 251.95 262.62"/><polygon class="cls-25" points="251.95 262.62 257.48 312.16 269.32 318.61 267.09 269.34 251.95 262.62"/><polygon class="cls-26" points="275.7 252.64 272.24 250.35 249.6 253.54 294.25 274.96 380.93 256.81 275.7 252.64"/><polygon class="cls-21" points="263.84 188.18 272.6 253.07 305.85 269.34 301.55 205.12 263.84 188.18"/><path class="cls-22" d="M267.55,215.64l5.05,37.43,33.25,16.27-2.29-34.19C286.7,278.29,267.55,215.64,267.55,215.64Z"/><polygon class="cls-23" points="263.84 188.18 344.59 176.79 389.52 191.37 301.55 205.12 263.84 188.18"/><polygon class="cls-24" points="389.52 191.37 380.93 256.81 305.85 269.34 301.55 205.12 389.52 191.37"/><path class="cls-22" d="M381.73,250.68l-.8,6.13-75.08,12.53-2.72-40.58C317.12,263.85,381.73,250.68,381.73,250.68Z"/><polygon class="cls-25" points="275.7 193.51 286.96 198.51 374.04 186.34 358.7 181.37 275.7 193.51"/><polygon class="cls-25" points="275.7 193.51 279.82 230.35 288.62 235.15 286.96 198.51 275.7 193.51"/><path class="cls-16" d="M249.11,36.39l15.46-1.59a1,1,0,0,0,.82-1.26l-1.25-3.8A1.93,1.93,0,0,0,263,28.53l-3.58-1.3a1.58,1.58,0,0,1-.52-.33L253,21.12a2,2,0,0,0-1.55-.55l-4,.41a1,1,0,0,0-.86,1.06l1.38,13.49A1,1,0,0,0,249.11,36.39Z"/><path class="cls-16" d="M244.07,21.34l-6,.62-.59.06L218,24A2.32,2.32,0,0,0,216,26.56h0a2.3,2.3,0,0,0,2.52,2.05l19.08-2A.37.37,0,0,1,238,27V27a.38.38,0,0,1-.34.42l-13,1.34a2.31,2.31,0,0,0-2.07,2.54h0a2.3,2.3,0,0,0,2.52,2.06l13-1.34a.45.45,0,0,1,.49.4h0a.37.37,0,0,1-.33.4l-8.2.84A2.32,2.32,0,0,0,228,36.25h0a2.3,2.3,0,0,0,2.52,2l8.59-.88.58-.06,6-.62a1.94,1.94,0,0,0,1.73-2.13l-1.18-11.54A1.94,1.94,0,0,0,244.07,21.34Z"/></g></g></svg>