<svg id="OBJECT" xmlns="http://www.w3.org/2000/svg" viewBox="0 0 752.34 507.22">
<defs><style>.cls-1{fill:#8ed0b9;}.cls-2{fill:#21255c;}.cls-3{fill:#495375;}.cls-4{fill:#c7d2d7;}.cls-5{fill:#99a3b0;}.cls-6{fill:#243873;}.cls-7{fill:#7dd3e9;}.cls-8{fill:#5fa5cc;}.cls-16,.cls-9{fill:#fff;}.cls-9{opacity:0.5;}.cls-10{fill:#f4d071;}.cls-11{fill:#fbeed1;}.cls-12{fill:#eca85e;}.cls-13{fill:#e8916a;}.cls-14{fill:#a34262;}.cls-15{fill:#4494b7;}.cls-17{fill:#4b4762;}.cls-18{fill:#797c99;}.cls-19{fill:#402c49;}.cls-20{fill:#f2c9ad;}.cls-21{fill:#eba58e;}.cls-22{fill:#6a3649;}.cls-23{fill:#8ee2ff;}
</style></defs><title>contact</title>
<path class="cls-1" d="M408.31,464.16a4,4,0,0,1,4-4H590.64a4,4,0,0,0,0-8H4a4,4,0,1,0,0,8H147a4,4,0,1,1,0,8.05H67.42a3.56,3.56,0,0,0-3.56,3.56v.92a3.56,3.56,0,0,0,3.56,3.56H243.59a4,4,0,1,1,0,8H201.83a4,4,0,0,0,0,8.05H434.31a4,4,0,0,0,0-8.05H354.47a4,4,0,0,1,0-8H527.24a3.56,3.56,0,0,0,3.56-3.56v-.92a3.56,3.56,0,0,0-3.56-3.56H412.33A4,4,0,0,1,408.31,464.16Z"/>
<polygon class="cls-2" points="57.08 392.54 57.08 413.97 38.46 413.97 38.46 392.44 57.08 392.54"/>
<polygon class="cls-2" points="252.22 392.54 252.22 413.97 199.82 413.97 199.82 392.44 252.22 392.54"/
><path class="cls-2" d="M214.18,340.61c-7.33,0-13.38,22.55-14.36,51.84h28.72C227.56,363.16,221.51,340.61,214.18,340.61Z"/>
<path class="cls-2" d="M259.13,349.47H216.27V452.1h42.86c6.83,0,12.37-23,12.37-51.32S266,349.47,259.13,349.47Z"/>
<ellipse class="cls-3" cx="216.27" cy="400.78" rx="12.36" ry="51.31"/>
<path class="cls-4" d="M219.13,372.24c-.88-1.53-1.85-2.37-2.86-2.37-4.12,0-7.45,13.84-7.45,30.91s3.33,30.92,7.45,30.92c1,0,2-.85,2.86-2.37-2.7-4.65-4.59-15.68-4.59-28.55S216.43,376.89,219.13,372.24Z"/>
<path class="cls-5" d="M219.13,372.24c-2.7,4.65-4.59,15.68-4.59,28.54s1.89,23.9,4.59,28.55c2.69-4.65,4.59-15.68,4.59-28.55S221.82,376.89,219.13,372.24Z"/>
<path class="cls-2" d="M491.55,349.47H448.68V452.1h42.87c6.83,0,12.36-23,12.36-51.32S498.38,349.47,491.55,349.47Z"/>
<ellipse class="cls-3" cx="448.68" cy="400.78" rx="12.36" ry="51.31"/>
<path class="cls-4" d="M451.54,372.24c-.88-1.53-1.84-2.37-2.86-2.37-4.11,0-7.45,13.84-7.45,30.91s3.34,30.92,7.45,30.92c1,0,2-.85,2.86-2.37-2.69-4.65-4.59-15.68-4.59-28.55S448.85,376.89,451.54,372.24Z"/>
<path class="cls-5" d="M451.54,372.24c-2.69,4.65-4.59,15.68-4.59,28.54s1.9,23.9,4.59,28.55c2.7-4.65,4.59-15.68,4.59-28.55S454.24,376.89,451.54,372.24Z"/>
<path class="cls-2" d="M52.82,340.61c-7.33,0-13.38,22.55-14.36,51.84H67.18C66.2,363.16,60.15,340.61,52.82,340.61Z"/>
<rect class="cls-1" x="252.22" y="75.27" width="295.19" height="317.18"/>
<rect class="cls-2" x="253.6" y="98.63" width="292.45" height="270.46" transform="translate(633.68 -165.96) rotate(90)"/>
<path class="cls-2" d="M95.68,349.47H52.82V452.1H95.68c6.83,0,12.37-23,12.37-51.32S102.51,349.47,95.68,349.47Z"/>
<ellipse class="cls-3" cx="52.82" cy="400.78" rx="12.36" ry="51.31"/>
<path class="cls-4" d="M55.68,372.24c-.88-1.53-1.85-2.37-2.86-2.37-4.11,0-7.45,13.84-7.45,30.91s3.34,30.92,7.45,30.92c1,0,2-.85,2.86-2.37-2.7-4.65-4.59-15.68-4.59-28.55S53,376.89,55.68,372.24Z"/>
<path class="cls-5" d="M55.68,372.24c-2.7,4.65-4.59,15.68-4.59,28.54s1.89,23.9,4.59,28.55c2.69-4.65,4.59-15.68,4.59-28.55S58.37,376.89,55.68,372.24Z"/>
<path class="cls-1" d="M134.94,75.27V392.45h64.88c1-29.29,7-51.84,14.36-51.84s13.38,22.55,14.36,51.84h23.68V75.27Z"/>
<path class="cls-6" d="M134.94,149.78H82.15a18.55,18.55,0,0,0-18.37,16L50.35,262.3,33.5,279.68a31,31,0,0,0-8.71,21.51v91.26H38.46c1-29.29,7-51.84,14.36-51.84s13.38,22.55,14.36,51.84h67.76Z"/>
<rect class="cls-4" x="252.22" y="392.45" width="305" height="21.43"/>
<rect class="cls-5" x="228.63" y="392.45" width="23.59" height="21.53"/>
<polygon class="cls-5" points="134.94 392.44 134.94 392.54 67.18 392.44 67.18 413.97 134.94 413.97 199.82 413.97 199.82 392.54 134.94 392.44"/>
<polygon class="cls-5" points="38.46 392.54 38.46 413.97 19.85 413.97 19.85 392.44 38.46 392.54"/>
<path class="cls-7" d="M112.58,163.38H82.15a5,5,0,0,0-4.9,4.26L64.08,262.3h48.5Z"/>
<path class="cls-8" d="M110.73,250.76a25.34,25.34,0,0,0-17.91-7.42H74.87l9-72a2.48,2.48,0,0,1,2.46-2.16h26.25v-5.77H82.15a5,5,0,0,0-4.9,4.26L64.08,262.3h48.5V250.76Z"/>
<path class="cls-9" d="M106.66,249.26h0a26.58,26.58,0,0,1-10.15-20.9V169.15A2.48,2.48,0,0,1,99,166.67h7.63a2.48,2.48,0,0,1,2.47,2.48v78.94A1.49,1.49,0,0,1,106.66,249.26Z"/>
<path class="cls-3" d="M59.93,253.49H50v4.94h10a2.47,2.47,0,1,0,0-4.94Z"/>
<rect class="cls-3" x="31.01" y="227.37" width="19.55" height="35.65" rx="3.3"/>
<rect class="cls-1" x="35.95" y="227.37" width="19.55" height="35.65" rx="3.3"/>
<path class="cls-1" d="M108.05,262.3V379a2.27,2.27,0,1,0,4.53,0V262.3Z"/>
<path class="cls-1" d="M32.08,342.46a1.85,1.85,0,0,1-1.86-1.85v-38a28.91,28.91,0,0,1,8.19-20.22,1.85,1.85,0,1,1,2.66,2.58,25.26,25.26,0,0,0-7.14,17.64v38A1.85,1.85,0,0,1,32.08,342.46Z"/>
<path class="cls-1" d="M44.47,280.63a1.83,1.83,0,0,1-1.29-.52,1.85,1.85,0,0,1,0-2.63l3.58-3.7a1.86,1.86,0,0,1,2.67,2.59l-3.59,3.7A1.86,1.86,0,0,1,44.47,280.63Z"/>
<rect class="cls-10" x="385.44" y="280.63" width="99.45" height="99.45"/>
<rect class="cls-11" x="426.3" y="280.63" width="17.72" height="31.13"/>
<rect class="cls-12" x="364.04" y="280.63" width="21.4" height="99.45"/>
<rect class="cls-10" x="362.35" y="196.74" width="83.89" height="83.89"/>
<rect class="cls-11" x="396.82" y="196.74" width="14.95" height="26.25"/>
<rect class="cls-12" x="335.28" y="196.74" width="27.06" height="83.89"/>
<rect class="cls-10" x="264.59" y="181.18" width="70.7" height="99.45"/>
<rect class="cls-11" x="276.7" y="181.18" width="17.72" height="31.13"/>
<polygon class="cls-12" points="335.29 280.63 264.59 280.63 264.59 263.12 335.29 280.63"/><rect class="cls-10" x="264.59" y="280.63" width="99.45" height="99.45"/><rect class="cls-11" x="305.45" y="280.63" width="17.72" height="31.13"/><polygon class="cls-12" points="364.04 380.08 264.59 380.08 264.59 357.51 364.04 380.08"/><path class="cls-13" d="M273.38,407H252.2V392.45h35.71A14.53,14.53,0,0,1,273.38,407Z"/><path class="cls-13" d="M536.07,407h21.17V392.45h-35.7A14.52,14.52,0,0,0,536.07,407Z"/><path class="cls-14" d="M252.22,407h0a12.9,12.9,0,0,1-12.9-12.9v-1.62h12.9Z"/><polygon class="cls-15" points="252.22 75.27 134.94 342.46 134.94 392.44 159 392.44 252.22 195.02 252.22 75.27"/><rect class="cls-16" x="131.34" y="157.81" width="99.54" height="8.35"/><rect class="cls-4" x="131.34" y="166.16" width="99.54" height="8.35"/><polygon class="cls-5" points="230.87 157.81 230.87 166.16 230.87 174.51 237.78 174.51 237.78 166.16 237.78 157.81 230.87 157.81"/><rect class="cls-16" x="131.34" y="247.61" width="99.54" height="8.35"/><rect class="cls-4" x="131.34" y="255.96" width="99.54" height="8.35"/><polygon class="cls-5" points="230.87 247.61 230.87 255.96 230.87 264.31 237.78 264.31 237.78 255.96 237.78 247.61 230.87 247.61"/><polygon class="cls-17" points="583.25 212.76 607.37 212.76 629.37 212.76 652.91 212.76 666.26 212.76 701.74 469.55 664.85 469.55 636.12 265.27 612.47 265.27 624.4 469.55 587.51 469.55 570.48 212.76 583.25 212.76"/><polygon class="cls-18" points="704.26 469.55 662.06 469.55 660.34 457.32 702.57 457.32 704.26 469.55"/><polygon class="cls-18" points="626.82 469.55 584.61 469.55 583.96 457.32 626.2 457.32 626.82 469.55"/><path class="cls-12" d="M667.73,469.54h31.2l2.42,5a17.62,17.62,0,0,0,9.1,8.61,17.57,17.57,0,0,1,9.24,8.93h-49.8Z"/><path class="cls-10" d="M719.69,492.08a18.18,18.18,0,0,1,1,2.52l1.29,4.57H670.57l-.68-7.09Z"/><path class="cls-12" d="M575.94,481.36A24.2,24.2,0,0,0,591,469.89l.2-.35h30.47l2.88,22.54h-63.3A24.22,24.22,0,0,1,575.94,481.36Z"/><path class="cls-10" d="M561.29,492.08h63.3l.9,7.09H558l1.38-3.42A23.88,23.88,0,0,1,561.29,492.08Z"/><path class="cls-19" d="M572.38,241.47h39.24l6.76,10a11.57,11.57,0,0,0,9.59,5.1h0a55.22,55.22,0,0,0,33.06-11l8.86-6.61-3.63-26.24H570.48Z"/><polygon class="cls-6" points="570.48 212.76 666.26 212.76 674.03 203.51 658.62 97.78 579.08 97.78 563.08 203.51 570.48 212.76"/><polygon class="cls-13" points="606.18 89.97 632.81 89.97 621 97.78 611.62 97.78 606.18 89.97"/><polygon class="cls-20" points="608.32 64.85 608.32 97.78 616.98 107.27 629.37 97.78 629.37 64.85 608.32 64.85"/><path class="cls-19" d="M620.53,86.17a19,19,0,0,1-12.21,1.1V64.85h21V77.77A19.09,19.09,0,0,1,620.53,86.17Z"/><rect class="cls-20" x="588.93" y="13.96" width="50.67" height="69.67" rx="25.34"/><path class="cls-21" d="M639.6,39.29A25.34,25.34,0,0,0,614.26,14h0a25.33,25.33,0,0,0-25.33,25.33v5.3H639.6Z"/><path class="cls-19" d="M608.86,47.88a1.65,1.65,0,0,1,1.66,1.65v2.13a1.66,1.66,0,1,1-3.31,0V49.53A1.65,1.65,0,0,1,608.86,47.88Z"/><path class="cls-19" d="M591.76,46.46a1.55,1.55,0,0,1,1.42,1.66v2.12a1.43,1.43,0,1,1-2.83,0V48.12A1.55,1.55,0,0,1,591.76,46.46Z"/><path class="cls-21" d="M595.88,58.49a29.87,29.87,0,0,0,6.79.87,9.72,9.72,0,0,1-1.8,1.77,2.73,2.73,0,0,1-4-.66A10.73,10.73,0,0,1,595.88,58.49Z"/><path class="cls-16" d="M595.64,65.64a36.07,36.07,0,0,0,16,.17,8.49,8.49,0,0,1-4.45,5.77,8.2,8.2,0,0,1-7.17.14C597.75,70.67,596.17,68.06,595.64,65.64Z"/><path class="cls-22" d="M610.51,41a8.51,8.51,0,0,1,6.32,4.17l-13.46-1.64A8.53,8.53,0,0,1,610.51,41Z"/><path class="cls-22" d="M591.45,41.58a4.32,4.32,0,0,0-2.85,3l6.06-1.18A3.17,3.17,0,0,0,591.45,41.58Z"/><path class="cls-22" d="M636.28,60.13c-2.51.1-5.42,0-7-1.94a8.07,8.07,0,0,1-1.3-4.43q-.94-10.55-1.91-21.07c-2.63,2.29-44.88-3.34-35.31-15.07A45.32,45.32,0,0,1,603.32,7.07a26.12,26.12,0,0,1,15.76-3.7c5.45.63,10.74,3.71,13.31,8.56,4.53-.27,9.38,2.52,12,6.26a22.22,22.22,0,0,1,3.43,13,65.17,65.17,0,0,1-2.08,13.43,45.24,45.24,0,0,1-2.6,8.73C641.85,56.08,639.32,60,636.28,60.13Z"/><path class="cls-19" d="M645.69,44.57a65.17,65.17,0,0,0,2.08-13.43,22.22,22.22,0,0,0-3.43-12.95c-2.57-3.74-7.42-6.53-12-6.26-2.57-4.85-7.86-7.93-13.31-8.56a26.12,26.12,0,0,0-15.76,3.7,45.32,45.32,0,0,0-12.55,10.55C581.2,29.35,623.45,35,626.08,32.69l1.08,11.9h18.53Z"/><path class="cls-1" d="M608.2,0h-4.12a17,17,0,0,0-17,16.94V36.61h38V16.94A17,17,0,0,0,608.2,0Z"/><path class="cls-1" d="M627.22,0h-19a17,17,0,0,1,16.95,16.94V36.61H649V21.79A21.78,21.78,0,0,0,627.22,0Z"/><path class="cls-1" d="M626.55,31.69H566.64a2.46,2.46,0,0,0,0,4.92h59.91a2.46,2.46,0,1,0,0-4.92Z"/><rect class="cls-16" x="622.81" y="59.7" width="19.51" height="2.42" transform="translate(42.07 295.79) rotate(-27.19)"/><rect class="cls-16" x="625.22" y="68.46" width="18.89" height="2.42" transform="translate(4.09 169.83) rotate(-15.29)"/><path class="cls-23" d="M625.57,64.56a32.63,32.63,0,0,1-9-1.26l-14.77-4.25a9,9,0,0,0-5.15,0l-9.17,2.75V63.7a21.93,21.93,0,0,0,21.93,21.93,39.45,39.45,0,0,0,15.23-3.06l3.51-1.48V64.56Z"/><path class="cls-16" d="M601.85,59.05l14.77,4.25a32.63,32.63,0,0,0,9,1.26h2.63V61.22h-2.63a32.25,32.25,0,0,1-9-1.26l-14.77-4.25a9.21,9.21,0,0,0-5.15,0l-9.17,2.75v3.34l9.17-2.75A9,9,0,0,1,601.85,59.05Z"/><path class="cls-20" d="M631.67,63.25a8.91,8.91,0,1,0,8.91-8.91A8.91,8.91,0,0,0,631.67,63.25Z"/><path class="cls-21" d="M635.88,63.25a4.7,4.7,0,1,0,4.7-4.7A4.7,4.7,0,0,0,635.88,63.25Z"/><polygon class="cls-1" points="621 97.78 627.57 114.78 635.4 97.78 632.81 89.97 621 97.78"/><polygon class="cls-1" points="611.62 97.78 607.21 111.96 603.63 97.78 606.18 89.97 611.62 97.78"/><polygon class="cls-13" points="611.62 97.78 616.98 107.27 609.51 104.56 611.62 97.78"/><polygon class="cls-13" points="621 97.78 616.98 107.27 623.92 105.33 621 97.78"/><path class="cls-6" d="M579.08,97.78h0a32.2,32.2,0,0,0-27.73,15.83L535.88,139.8l36.34,3.28Z"/><path class="cls-21" d="M543.05,224.19q2.15-2.28,4.31-4.54h-3.49A7.08,7.08,0,0,0,543.05,224.19Z"/><path class="cls-20" d="M547.36,219.65q-2.16,2.26-4.31,4.54a7.08,7.08,0,0,1,.82-4.54h-5.33c.3,3.32,3.62,6.82,7,7a9.3,9.3,0,0,0,6-2,27.27,27.27,0,0,0,4.81-5.08Z"/><path class="cls-21" d="M537.06,224.19l4.31-4.54h-3.49A7.21,7.21,0,0,0,537.06,224.19Z"/><path class="cls-20" d="M541.37,219.65l-4.31,4.54a7.21,7.21,0,0,1,.82-4.54h-5.32c.3,3.32,3.61,6.82,7,7a9.27,9.27,0,0,0,6-2,27,27,0,0,0,4.82-5.08Z"/><path class="cls-21" d="M528.19,224.19q2.14-2.28,4.31-4.54H529A7.14,7.14,0,0,0,528.19,224.19Z"/><path class="cls-20" d="M532.5,219.65q-2.16,2.26-4.31,4.54a7.14,7.14,0,0,1,.82-4.54h-5.33c.3,3.32,3.62,6.82,7,7a9.3,9.3,0,0,0,6-2,27.27,27.27,0,0,0,4.81-5.08Z"/><rect class="cls-10" x="503.91" y="113.17" width="106.48" height="106.48" transform="translate(1114.3 332.81) rotate(180)"/><rect class="cls-11" x="547.66" y="113.17" width="18.98" height="33.33" transform="translate(1114.3 259.66) rotate(180)"/><rect class="cls-12" x="610.39" y="113.17" width="48.95" height="106.48"/><path class="cls-20" d="M643.77,219.87h0l-16-14c-1.83.71-2.69,2.9-2.67,4.86a8.25,8.25,0,0,0,2.31,5.28,24.4,24.4,0,0,0,4.6,3.67H612.47a7.15,7.15,0,0,0,1.89,3.56,18.76,18.76,0,0,0,4.82,3.33,8.13,8.13,0,0,0,2.71,8.56,24,24,0,0,1,2.76,1.94c1.23,1.21,1.75,3,2.92,4.28,1.74,1.9,4.55,2.34,7.13,2.41a40.16,40.16,0,0,0,25-8.09Z"/><path class="cls-20" d="M658.61,97.78h0a29.57,29.57,0,0,1,26.25,16l29.63,57.19a22.44,22.44,0,0,1-6.41,28.23l-48.36,36.49-16-15.78,45.81-38.21-25.74-48Z"/><path class="cls-6" d="M689.53,115.25a36.09,36.09,0,0,0-30.92-17.47h0l5.23,35.84,7.47,18.76,27.93-21Z"/><polygon class="cls-1" points="705.64 142.01 699.24 131.39 671.31 152.38 675.38 162.59 705.64 142.01"/><polygon class="cls-19" points="678.3 160.6 701.1 145.1 682.19 167.86 678.3 160.6"/><path class="cls-1" d="M748.32,507.22H523.9a4,4,0,0,1-4-4h0a4,4,0,0,1,4-4H748.32a4,4,0,0,1,4,4h0A4,4,0,0,1,748.32,507.22Z"/>
</svg>