<svg id="OBJECT" xmlns="http://www.w3.org/2000/svg" viewBox="0 0 752.64 501.65"><defs><style>.cls-1{fill:#fefefe;}.cls-2{fill:#d1e6db;}.cls-3{fill:#a2ceb8;}.cls-4{fill:#2f3b71;}.cls-5{fill:#6392b3;}.cls-6{fill:#a3ceb8;}.cls-7{fill:#4d5473;}.cls-8{fill:#d9a562;}.cls-9{fill:#e6c7ac;}.cls-10{fill:#bce7fd;}.cls-11{fill:#f6ecd0;}.cls-12{fill:#797a96;}.cls-13{fill:#e9ce76;}.cls-14{fill:#99a1ad;}.cls-15{fill:#d8a38e;}.cls-16{fill:#292c5c;}.cls-17{fill:#67404e;}.cls-18{fill:#98baaf;}.cls-19{fill:#97baaf;}.cls-20{fill:#d0916e;}.cls-21{fill:#4b4961;}.cls-22{fill:#3e304a;}.cls-23{fill:#797b96;}.cls-24{fill:#5f394a;}.cls-25{fill:#d19977;}.cls-26{fill:#272a5b;}.cls-27{fill:#e9ce75;}.cls-28{fill:#c8d0d5;}.cls-29{fill:#d3a767;}.cls-30{fill:#d28f6c;}.cls-31{fill:#ddcbb2;}.cls-32{fill:#caa96c;}.cls-33{fill:#8e4461;}.cls-34{fill:#99a2ad;}.cls-35{fill:#bead74;}.cls-36{fill:#add4c1;}.cls-37{fill:#92b9ac;}.cls-38{fill:#b39065;}.cls-39{fill:#b4c3c3;}.cls-40{fill:#78a2c8;}.cls-41{fill:#9bd1e6;}.cls-42{fill:#a1cdb7;}.cls-43{fill:#464e7d;}.cls-44{fill:#434b7a;}.cls-45{fill:#444c7b;}.cls-46{fill:#2a2d5d;}.cls-47{fill:#95baa9;}.cls-48{fill:#d2906c;}.cls-49{fill:#42354e;}.cls-50{fill:#613b4b;}.cls-51{fill:#42334c;}.cls-52{fill:#41324b;}.cls-53{fill:#bbbfd0;}.cls-54{fill:#5a5d81;}.cls-55{fill:#53587f;}.cls-56{fill:#565a80;}.cls-57{fill:#575b80;}.cls-58{fill:#595d81;}.cls-59{fill:#d7a591;}.cls-60{fill:#e9cd75;}.cls-61{fill:#d0b973;}.cls-62{fill:#9ad1e6;}.cls-63{fill:#c9e7f2;}.cls-64{fill:#b7d0e3;}.cls-65{fill:#b4cee2;}</style></defs><title>contact</title><path class="cls-1" d="M753.17,505.4c0,3.36,0,3.36-3.36,3.36q-373.75,0-747.5.06c-2,0-2.31-.46-2.31-2.36Q.09,254.61,0,2.77C0,.91.25.38,2.29.38q300.32.1,600.64.06a.55.55,0,0,1-.16.75,5,5,0,0,1-1.53.65c-8.5,2.61-12.78,8.25-13,17.12-.07,3.68,0,7.36,0,11,0,2.71-.57,3.24-3.26,3.28-4.72.08-9.44,0-14.16,0-.8,0-1.6,0-2.39,0-1.12.09-2.43.08-2.44,1.65s1.31,1.65,2.42,1.66c6,.1,12,0,18,.06,1.24,0,2.62-.23,3.46,1.12.61,2,.24,4,.3,6,.05.55,0,1.11,0,1.67,0,3.35,0,6.7,0,10,0,1.6.58,2.24,2.19,1.66.6-.21,1.23-.34,1.82-.57a16.24,16.24,0,0,1,11.45-.05c4.23,1.41,8.56,2.58,12.9,3.65a27.93,27.93,0,0,0,12.76.5c1.52-.33,1.87.46,1.61,1.75-.42,2.07-2.19,2.55-3.83,3.19a32.47,32.47,0,0,1-13-1.08c-4.35-1.35-8.76-2.51-13.13-3.78a10.88,10.88,0,0,0-7,.16,36.77,36.77,0,0,1-4.6,1.36c-2,.46-2.74,1.65-2.57,3.65a21.43,21.43,0,0,0,17.8,19.56c.85.17,1.78.12,2.44.85a5.42,5.42,0,0,1,.11,4,2.31,2.31,0,0,1-1.2.95c-1.44,1.14-1.4,3-2.06,4.46-.5,1.15-.65,2.51-2.09,3-7.25.43-14.5.06-21.75.19s-14.24,1.53-20.33,5.91a38.85,38.85,0,0,0-7.2,7,7.74,7.74,0,0,1-1.79,1.91c-1.61.67-3.21,1-4.69-.3a7.68,7.68,0,0,1-.51-3.76c0-9.75,0-19.51,0-29.26,0-3.2-.2-3.39-3.4-3.41-4.88,0-9.75,0-14.63,0H256.65A26.72,26.72,0,0,1,253.3,77h-1c-1,.09-2.08.09-3.11.09H140.62c-4.42,0-4.43,0-4.43,4.49q0,32.13,0,64.26c0,5-.11,5.06-5.12,5.06H84.55a11.29,11.29,0,0,0-3.33.22c-6.79,1.22-12.09,4.44-14.88,11.06a17.11,17.11,0,0,0-1.25,4.36q-4.17,29.7-8.27,59.39a5.44,5.44,0,0,1-1,3.13c-2.51.13-5-.69-7.48-.4-3.24,0-6.48,0-9.71,0h-.24c-5.42.11-5.89.58-5.89,5.9q0,11.47,0,22.94c0,5.41.2,5.61,5.6,5.79,3.59.13,7.19-.23,10.77.2a1.27,1.27,0,0,1,.88.93,3.79,3.79,0,0,1-1.55,2.6c-4.65,4.63-9.24,9.31-13.67,14.14-5.24,5.72-8.26,12.33-8.27,20.14q0,43.92,0,87.83c0,1.4.32,2.9-.69,4.16a2.11,2.11,0,0,1-1.11.42c-3.12,0-3.45.24-3.44,4.21,0,4.39,0,8.78,0,13.17,0,2.62.23,2.82,2.9,2.85,5.11.07,10.21-.07,15.32.07a4,4,0,0,1,2.07.42c1.15,1.49,1.07,3.28,1.22,5a110,110,0,0,0,4.2,23.26,21.89,21.89,0,0,0,4.55,8.61c.46.49,1.07,1,.58,1.88-1.2.89-2.6.66-3.94.66q-20.4,0-40.8,0a11.69,11.69,0,0,0-3.34.23,2.79,2.79,0,0,0-2.19,2.81,2.74,2.74,0,0,0,2.15,2.82,13.81,13.81,0,0,0,4.06.27H142.86a21,21,0,0,1,5,.31c2.87.69,4.51,2.56,4.35,4.93s-2.22,4.12-4.94,4.4c-1.12.11-2.24.06-3.36.06H71.68a23.54,23.54,0,0,0-3.36.09c-1.94.28-3,1.35-3,3.12s1,3,3.08,3.31a26.91,26.91,0,0,0,3.59.09H240a28.32,28.32,0,0,1,4.32.14c2.66.41,4.39,2.2,4.47,4.56s-1.65,4.22-4.24,4.78a17.57,17.57,0,0,1-3.83.22H204.94a16.18,16.18,0,0,0-3.11.16,2.87,2.87,0,0,0-2.44,2.87,2.73,2.73,0,0,0,2.34,2.91,12.53,12.53,0,0,0,2.87.19H432.84a19.27,19.27,0,0,0,2.4-.1,2.72,2.72,0,0,0,2.64-3.08,2.62,2.62,0,0,0-2.6-2.86,31.16,31.16,0,0,0-3.35-.09H359a14.26,14.26,0,0,1-5-.53,4.77,4.77,0,0,1-3.48-4.63,4.93,4.93,0,0,1,4.15-4.36,23,23,0,0,1,4.31-.18h164.4c1.12,0,2.24,0,3.36,0,2.63-.17,3.83-1.24,3.8-3.34s-1.21-3-3.7-3.2c-1-.07-2.08,0-3.12,0H416.42a27,27,0,0,1-3.6-.09,4.66,4.66,0,0,1-.81-9.19,15,15,0,0,1,4.76-.42H580.21a10.16,10.16,0,0,1,4.24.41c1.48,1.61,1.17,3.71,1.31,5.59.25,3.44.07,3.75,3.79,3.69a3.81,3.81,0,0,1,1.38.23c1.55,1.08.48,2.11-.14,3-3.44,5.09-8.36,8.08-14.14,9.72a24.36,24.36,0,0,0-11.73,7.11c-.87,1-1.61,2-2.38,3-1.17,1.62-1.69,3.55-2.56,5.31a4.79,4.79,0,0,1-1.64,2.27,8.72,8.72,0,0,1-4,.52h-27.6c-3.82,0-5.26.84-5.29,3s1.43,3.11,5.22,3.11q51.35,0,102.69,0H746.21c2.19,0,4.33,0,6.06-1.62A.9.9,0,0,1,753.17,505.4Z"/><path class="cls-1" d="M630.29.44Q690.65.44,751,.4c1.8,0,2.21.4,2.21,2.2q-.08,250-.05,499.92a.76.76,0,0,1-.82,0,8.75,8.75,0,0,0-6.39-2.14c-6.6,0-13.21,0-19.82,0a9.65,9.65,0,0,1-3.3-.29c-1.45-.92-1.43-2.57-1.92-4-.4-1.12-.79-2.25-1.24-3.35a15.26,15.26,0,0,0-8.16-8c-5.74-2.41-9.23-6.81-11.49-12.4-.31-.78-.87-1.61.1-2.36,3.83-.81,3.82-.81,3.41-5-.12-1.27-.4-2.52-.52-3.8a2.36,2.36,0,0,0-1.24-2.18c-1.26-.56-1.62-1.68-1.94-2.86-1.85-11.76-3.32-23.58-5-35.37-3.17-22.55-6.24-45.11-9.38-67.67-4.85-34.9-9.59-69.82-14.48-104.72-.38-2.76-.83-5.53-1.07-8.32-.1-3-1-5.84-.94-8.82,0-1.93,1.22-3,2.61-4,11.94-8.86,23.72-17.92,35.61-26.84,4.94-3.71,8.61-8.28,9.57-14.65a22.23,22.23,0,0,0-2.07-13.74c-3.8-7.48-7.63-14.94-11.61-22.33a15,15,0,0,1-1.49-3.26c0-1.44,1.2-2,2.17-2.58,1.34-.84,1.59-1.71.71-3.11-1.77-2.81-3.41-5.69-5.18-8.5-3.09-5.13-6.23-10.23-9.32-15.35-7.19-11.89-17.93-17.54-31.6-17.9-6.38-.17-12.77,0-19.15,0a8.24,8.24,0,0,1-3.08-.31c-1.1-.61-1.11-1.81-1.52-2.81-.62-1.5-.64-3.28-2-4.42-.79-.27-1.71-.1-2.42-.66-1.05-3.68-.52-7.42-.31-11.13a3.41,3.41,0,0,1,1.48-2.11,19.76,19.76,0,0,0,3.51-3.92c1.13-1.72,2.4-2.09,4.43-1.65a8.2,8.2,0,0,0,9.94-10.19A8.84,8.84,0,0,0,645,56.57c-.75-.47-1.61-.79-1.7-1.84.67-3.1,1.86-6.07,2.41-9.21.9-2.68,1.06-5.56,2.15-8.19a4.14,4.14,0,0,0,1-3.31c0-3.82,0-7.64,0-11.46A20.6,20.6,0,0,0,633.31,2.12a9.16,9.16,0,0,1-2.92-1A.5.5,0,0,1,630.29.44Z"/><path class="cls-2" d="M630.29.44a2.33,2.33,0,0,0,0,.46c-.89.91-2,.79-3.16.79q-10.54,0-21.11,0c-1.1,0-2.27.13-3.14-.81a3.25,3.25,0,0,0,0-.44Z"/><path class="cls-3" d="M253,76.27c1,0,1.92-.06,2.88-.06h288.8c3.88,0,3.48-.43,3.49,3.43q0,17,.07,34.06c-.07.13-.14.27-.2.41a1.3,1.3,0,0,1-.78.52c-3.88.33-7.76.81-11.61-.3a2.13,2.13,0,0,1-.45-.82,13.93,13.93,0,0,1-.25-3.81c0-5.92,0-11.84,0-17.76,0-2.5-.31-2.75-2.73-2.86-.72,0-1.44,0-2.16,0H270.46c-4.66,0-4.66,0-4.66,4.75q0,42.47,0,84.93a29.56,29.56,0,0,1-.09,3.12q-.06,41,0,82c.12,5.8.13,11.61,0,17.42q-.06,38.58,0,77.17c.18,6.07,0,12.14.08,18.21,0,3.51.12,3.63,3.64,3.63h81.72c4.16,0,8.31.09,12.46.1H365q10.5,0,21,0,49.86,0,99.73,0c14.47-.18,28.94,0,43.41-.08,1.12,0,2.24-.05,3.36,0,1.76.07,2.46-.77,2.4-2.46,0-1,0-1.92,0-2.88q0-71.71,0-143.44a15.67,15.67,0,0,1,.28-4.53c.3-.74.92-1.33,1.64-1,3.15,1.36,6.49.2,9.67.84.78.16,1.61.17,2.05,1a8.74,8.74,0,0,1,.39,3.55q0,78.9,0,157.8c0,1.34.19,2.73-.61,4a3.8,3.8,0,0,1-2.7.72c-7.79,0-15.58.1-23.38,0-.32,0-.63.05-.95.06-20.53.47-41.07.66-61.6.42-4.62,0-9.25-.42-13.89-.42H290.53c-.64,0-1.28,0-1.91-.07-11,.12-22.06,0-33.09,0a5.31,5.31,0,0,1-2.12-.34,1.15,1.15,0,0,1-.6-.68c-.07-13.78,0-27.55,0-40.81-.14-.84-.56-.35-.31-.55.58,13.88.29,27.75.15,41.63a3.47,3.47,0,0,1-2.68.74c-3.26,0-6.52.09-9.78,0-2.79.09-5.58.06-8.37,0-1.23,0-2.42-.18-3.07-1.44-.82-2.61-.52-5.35-.75-8-.52-6.24-1.22-12.46-2.19-18.64A77.69,77.69,0,0,0,221,348.8c-1.1-2.59-2.47-5-5-6.48a2.21,2.21,0,0,0-2.53,0c-2.2,1.11-3.36,3.12-4.38,5.2-3.23,6.59-4.64,13.69-5.81,20.85-.51,3.06-.92,6.14-1.17,9.23a6.94,6.94,0,0,0-.28,2.6,11.15,11.15,0,0,1-.2,2.31,9.46,9.46,0,0,0-.25,3.47,27,27,0,0,1-.19,4.4,11.56,11.56,0,0,1-.83,2.76,2,2,0,0,1-.74.44c-3.84.42-7.7,0-11.54.25q-12.39,0-24.77,0a10.3,10.3,0,0,1-2.6-.2c-1.59-.53-.9-1.63-.56-2.54,1.25-3.37,3-6.53,4.54-9.78q6.87-14.49,13.72-29c9-19.06,18-38.1,27-57.19,4.27-9.12,8.65-18.18,12.88-27.3a14.42,14.42,0,0,1,1.31-2.29,2.68,2.68,0,0,1,1.23-1,50,50,0,0,1,10.45-.1c6.45,1.06,6.66.88,6.66-5.56,0-2.48,0-5,0-7.44,0-1.86-.81-2.59-2.61-2.54a20.72,20.72,0,0,0-4.3.38,25.09,25.09,0,0,1-4.06.18q-45.16,0-90.33,0c-1.49,0-3.05.3-4.43-.6a.56.56,0,0,1,.29-.94c2.24-.62,2.19-2.35,2.19-4.17q0-31.6,0-63.2c0-2.12-.11-4-2.47-4.75-.29-.1-.13-.42-.13-.64.95-.8,2.11-.68,3.21-.68h70.79a8.52,8.52,0,0,1,2.61.25,2.11,2.11,0,0,1,.72.46c.34.94-.2,1.71-.54,2.49q-11,25.18-22.06,50.32c-2.55,5.78-5.06,11.57-7.6,17.36-.93,2.15-.88,2.2,1.53,2.2,14.8,0,29.59,0,44.39,0a3.86,3.86,0,0,0,4-2.61c4.57-10,9.39-20,14.06-30,2.36-5.07,4.86-10.09,7.16-15.19a5,5,0,0,1,1.55-2.38c.63-.41.81,0,.84.59,0,50.16,0,100.32,0,150,0-.28,0-1.06,0-1.83q0-73.17,0-146.35c0-1,.35-2.09-.43-3a28.89,28.89,0,0,1-.09-5.5q0-54.93,0-109.86C252.25,79.66,251.92,77.85,253,76.27Z"/><path class="cls-4" d="M132.18,175.16c3.37.86,3.37.86,3.37,4.72v63.59c0,4.05,0,4.05-3.43,5.14,1.28,2.57.48,5.31.63,8,.16,2.48-.25,5,.26,7.44.57,1.2,2.39.47,2.85,1.84a9.52,9.52,0,0,1,.23,2.86q0,6.48,0,13c-.08,35.6.16,71.19.09,106.78,0,1.58.31,3.22-.61,4.69-1,.82-2.25.7-3.44.71h-61a8.78,8.78,0,0,1-2.84-.29c-1.3-.58-1.1-1.8-1.21-2.88-.66-6.67-.82-13.39-1.94-20-1.35-7.95-2.43-16-6.3-23.24A18.53,18.53,0,0,0,57,344.61c-2.32-2.86-4.9-2.89-7.14,0a28.09,28.09,0,0,0-4.41,9.25,111.87,111.87,0,0,0-4,19.92,20.74,20.74,0,0,1-.58,2.82,6.51,6.51,0,0,0-.32,2.63,11.4,11.4,0,0,1-.2,2.33,9.64,9.64,0,0,0-.25,3.51,19.51,19.51,0,0,1-.2,3.74c-.67,1.45.25,3.29-1.12,4.57-4.46.6-8.92,1.12-13.33-.3,0-30.7-.08-61.41,0-92.12,0-8.2,3.39-15.15,9.08-21q7.53-7.74,15-15.52a1.85,1.85,0,0,1,2-1.06,3.88,3.88,0,0,0,4.25-3.61,1.45,1.45,0,0,1,.48-.8c1.19-.69,2.5-.37,3.76-.5,1-.1,2-.28,2.09-1.52s-.9-1.7-2-1.87c-1.44-.22-3.1.44-4.23-1a8.74,8.74,0,0,1-.37-3.29c-.1-6.75.19-13.5-.17-20.24a2.27,2.27,0,0,1,.39-1.58c2.91-20.93,5.78-41.87,8.75-62.79,1.17-8.23,7.7-14.33,16.29-15.51a5.07,5.07,0,0,1,2.12-.16h50.23c2.74,0,3,.23,3.11,2.92,0,.32,0,.64,0,1,.2,2.4-.21,4.46-2.88,5.27-1.1,2.44-.26,5-.56,7.52C132.6,169.8,133.38,172.55,132.18,175.16Z"/><path class="cls-3" d="M584.58,460.86l-170.15,0a6.77,6.77,0,0,0-3,.54,3.77,3.77,0,0,0-2.33,4.08,3.89,3.89,0,0,0,3.48,3.44,12.84,12.84,0,0,0,2.15,0H526.53c3.72,0,5,1.26,4.93,4.53-.07,2.15-1.3,3.18-3.2,3.58a11.89,11.89,0,0,1-2.39.05H357.4c-.72,0-1.44,0-2.16,0a4.21,4.21,0,0,0-4.13,3.63c-.23,1.76,1.19,3.52,3.23,4.16a11,11,0,0,0,3.33.28h76.55c3.5,0,4.9,1.4,4.61,4.53a3.23,3.23,0,0,1-3.18,3.26,23.78,23.78,0,0,1-2.39,0H204.07c-4,0-5.68-1.15-5.72-3.84s1.82-4,5.86-4h38.64c3.31,0,5.45-1.71,5.35-4.18s-1.94-3.9-5.33-3.9H70.09a19.2,19.2,0,0,1-2.4,0c-2.08-.25-3.27-1.75-3.28-4s1.16-3.79,3.22-4.07a17.27,17.27,0,0,1,2.16,0h75.83c.72,0,1.45.05,2.16,0,2-.18,3.87-1.9,3.86-3.67a3.9,3.9,0,0,0-3.07-4,12.63,12.63,0,0,0-3.56-.35H6.77c-.64,0-1.28,0-1.92,0C2.23,460.77.6,459.32.55,457s1.61-4,4.35-4c13.92,0,27.84,0,41.76,0,1.73,0,3.5.39,5.19-.31.59-.58,1.33-.44,2-.42,13.66.36,27.33.06,41,.15a7.55,7.55,0,0,0,1.9-.23,4.23,4.23,0,0,1,1.42,0,24.53,24.53,0,0,0,4.77.12q55.22,0,110.43,0a8.44,8.44,0,0,0,1.67-.16c14.26.55,28.53.11,42.79.24a10.45,10.45,0,0,0,2.62-.18,3.78,3.78,0,0,1,.95,0,13.84,13.84,0,0,0,3.58.08q90.6,0,181.18,0a8.44,8.44,0,0,0,1.67-.16q23,.39,46,0a11,11,0,0,0,1.9.16H582c1.68,0,3.41.15,4.5-1.55,1.27-.27,1.2.8,1.26,1.45a13.05,13.05,0,0,1-.22,5.35A10.13,10.13,0,0,0,584.58,460.86Z"/><path class="cls-3" d="M132.12,158.85c.89-1,2.72.3,3.17-.88s.25-2.82.25-4.24c0-3.46.36-3-3.11-3H83.33c-.87,0-1.75-.06-2.62-.09.85-.66,1.85-.34,2.78-.34q24.33,0,48.68,0c3.67,0,3.27.35,3.27-3.4q0-34.05,0-68.11c0-1.64.09-2.6,2.24-2.59q57.08.11,114.15,0c.24,0,.48,0,.72.06.44,1.44-.35,2.63-.87,3.83-6,13.67-12,27.36-18,41-5.3,12.06-10.62,24.12-16,36.43a60.76,60.76,0,0,0,7.36.16c1.44.05,2.88-.06,4.32.05.79.06,1.84-.23,2.13,1a1.43,1.43,0,0,1-.66.55,11,11,0,0,1-3.57.3q-45.53,0-91,0C134.84,159.61,133.34,159.92,132.12,158.85Z"/><path class="cls-5" d="M231.4,158.41H216.69c1.35-3.17,2.57-6.08,3.83-9q10.08-23,20.17-46,5.58-12.7,11.2-25.39c.25-.58.43-1.19.65-1.78a.61.61,0,0,1,.46,0q0,58.5,0,117a7.41,7.41,0,0,1-.43,3.52c.13.12.16.21.1.29s-.11.11-.16.11c-3.23,6.67-6.49,13.32-9.68,20-3.81,8-7.56,16-11.34,24a9.31,9.31,0,0,0-.93,1.94c-.88,4.58-3.83,5.16-8,5.08-14.15-.27-28.3-.1-42.45-.1h-2.57c.66-3,2.1-5.42,3.23-8C187.32,225.06,194,210,200.61,195c2.5-5.7,4.94-11.42,7.42-17.12a5.51,5.51,0,0,1,1.3-2.26c.87-.77,1.94-.64,3-.64,4.95,0,9.9-.1,14.85,0,3,.08,5.86-.68,8.81-.63,1.3,0,1.86-.74,1.87-2,.06-3.6,0-7.19,0-10.78,0-1.6-.89-2-2.29-2.05S232.45,160,231.4,158.41Z"/><path class="cls-3" d="M602.9.88l27.41,0a21.41,21.41,0,0,1,19.24,20.68c.08,4.63,0,9.26,0,13.9,0,1.13,0,2.15-1.59,2a3.56,3.56,0,0,1-2.68.73c-6.12,0-12.23.09-18.35,0-11.94.14-23.87,0-35.81.06a2.94,2.94,0,0,1-1.62-.32c-.93-.69-2-.4-3-.4-6.23,0-12.47,0-18.7,0-2.15,0-3.1-1-2.85-2.88s1.5-2,3-2c5.76,0,11.51-.07,17.27,0,1.88,0,2.43-.49,2.44-2.41,0-5-.4-10,.32-15.07A16.69,16.69,0,0,1,602.9.88Z"/><path class="cls-6" d="M752.71,502.5c0,1,0,1.95,0,2.93a3.58,3.58,0,0,1-3.94,2.46c-.88,0-1.76,0-2.64,0H526.64c-.64,0-1.28,0-1.92,0-2.64-.06-4.24-1.49-4.29-3.83s1.59-4,4.36-4c10.32,0,20.63,0,31,0a6.64,6.64,0,0,0,3.06-.37,3.6,3.6,0,0,1,2.69-.79c21.48,0,43-.11,64.44.05q22.58-.17,45.15,0c16.23-.15,32.46-.05,48.69-.05a3.75,3.75,0,0,1,2.7.78c8.31,0,16.62,0,24.94.08C749.57,499.76,751.79,500,752.71,502.5Z"/><path class="cls-7" d="M97.13,452.7c-.76.65-1.68.36-2.53.36q-19.6,0-39.22,0a32.84,32.84,0,0,1-3.53-.39c-3.62-2.71-4.9-6.79-6.12-10.83a109,109,0,0,1-3.93-22.55c-.13-1.51-.32-3-.49-4.52a5.11,5.11,0,0,1-.74-3.43c0-5.73,0-11.47,0-17.2a5.61,5.61,0,0,0-.19-1.73c1-11.54,1.74-23.12,5.64-34.18a23.32,23.32,0,0,1,3.18-6.15c2.13-2.88,5.29-3.09,7.83-.59a14.61,14.61,0,0,1,3.16,5.05c3.18,7.78,4.38,16,5.31,24.27a181.35,181.35,0,0,1,1,27.76C66,420.55,65,432.5,61.18,444a24.89,24.89,0,0,1-4.12,7.9c12.23,0,24.35,0,36.47,0C94.76,451.92,96.12,451.58,97.13,452.7Z"/><path class="cls-8" d="M562.16,492.49a23,23,0,0,1,13.69-10.17c6.8-1.92,12.41-5.36,15.67-11.92a3.24,3.24,0,0,1,2.67-.79q13-.06,25.91,0a4.77,4.77,0,0,1,2.33.46c.94.71.94,1.81,1.08,2.81.76,5.61,1.42,11.23,2.14,16.85a5.87,5.87,0,0,1-.17,2.6c-.76,1.56-2.24,1.35-3.55,1.36-5.75.06-11.5,0-17.25,0-13,0-26,0-39,0C564.43,493.66,562.86,494.2,562.16,492.49Z"/><path class="cls-9" d="M643.66,54.65c.05.82.74.9,1.3,1.19a9,9,0,0,1,4.68,11.43,8.74,8.74,0,0,1-11.14,5.22,2,2,0,0,0-2.7,1,18.28,18.28,0,0,1-4.26,4.77,3,3,0,0,0-1.33,2.64c.09,3.27.07,6.54.09,9.81a10.82,10.82,0,0,1,.16,2.2c-1.37,1.83-3.52,2.64-5.26,4a18.48,18.48,0,0,0-3.2,2.43c-1.26,2.16-1.86,4.59-3,6.8-1,2-1.73,2-3,.15-1.55-2.33-2.58-5-4.29-7.2-.77-2-2.62-3.36-3.13-5.5a9.33,9.33,0,0,1,.07-2.84l-.06-4.18a.45.45,0,0,1,.63-.17,3.64,3.64,0,0,0,3.61,1.8c4.91-.21,9.42-1.38,12.91-5.13,2-1,2.62-2.7,2.44-4.89a10.8,10.8,0,0,1,.27-4.45c1.45-1.76,4-1.07,5.74-2.61-1-1-1.93-.34-2.87-.21s-2.12,1-3-.36c-.28-1.77-.69-3.55.47-5.2,1.63-.94,4-1.27,3.59-4.09-8.4,2.41-16.1-.9-23.94-3-1.61-.44-3.25-.84-4.8-1.43-3.93-1.49-7.51,0-11.14,1.15-3.1,1-3.1,1-3.1-2.34s0-6.69,0-10a2.59,2.59,0,0,1,.8-.47c7.12-.54,14.26-.06,21.39-.19,1.87-.22,3.68.52,5.55.37,2.83-.69,5.71-.36,8.57-.33a2.47,2.47,0,0,1,2.23,1.17,30.12,30.12,0,0,1,1,7.08A11.13,11.13,0,0,0,630.12,58c.94,1.76,2.06,1.91,3.29.38C636.1,55.09,639.56,54.05,643.66,54.65Z"/><path class="cls-10" d="M628.91,73.42c0,1.5-.15,3,0,4.48.21,2.47,0,4.65-2.76,5.61-4.43,2.57-9.29,3.4-14.32,3.54a4.36,4.36,0,0,1-2.73-.58l-.22,0-.22,0c-10.49-1-18.52-8.1-20.47-18.31a25.61,25.61,0,0,1-.11-4.3c0-1,.58-1.36,1.44-1.61,3-.86,5.92-1.87,8.92-2.65,2.27-.59,4.37.54,6.49,1.1,4,1.06,8,2.18,11.89,3.49s8,.89,12.09,1.06l0,5.66A1.85,1.85,0,0,1,628.91,73.42Z"/><path class="cls-4" d="M552.49,113.25c5.26-7.48,12.18-12.49,21.29-14.15a40.66,40.66,0,0,1,6.88-.63c7.74-.08,15.47,0,23.21,0A1.57,1.57,0,0,1,605,99.59c1.18,4,2.15,8,2.91,11.5.39-1.66.69-3.93,2.25-5.72,2.18-.39,4,.78,5.81,1.6a4,4,0,0,0,3.32.12c1.67-.6,3.37-1.44,5.26-.85,1.85,2.37,3.31,4.87,2.84,8.06a3.34,3.34,0,0,1-2.26.63c-4.63,0-9.26.17-13.89-.11-13.77.32-27.54.08-41.3.14a12.6,12.6,0,0,1-2.38-.18c-4-.6-8-.14-12.07-.33C554.37,114.4,553,114.75,552.49,113.25Z"/><path class="cls-3" d="M56.3,259.18c-.28,3.83-1,4.55-4.75,4.7a4,4,0,0,0-2,.55l-.56-.55a79.47,79.47,0,0,0-8.31-.16,8.33,8.33,0,0,1-3.06-.37,3.87,3.87,0,0,1-1.76-3.69c-.08-9.17-.1-18.33,0-27.49,0-1.74.49-3.34,2.46-3.93,3.4-.18,6.8.21,10.19-.21,2.44-.09,4.89-.24,7.18.89.95,3.27.47,6.62.53,9.94.09,5.16.07,10.32.1,15.48A4.68,4.68,0,0,1,56.3,259.18Z"/><path class="cls-11" d="M552.49,113.25c.57,1.06,1.56.51,2.35.55,4.19.2,8.39-.29,12.58.29a5.12,5.12,0,0,1,.77,3.43c0,8.79,0,17.58,0,26.37,0,3.69-.51,4.19-4.13,4.21-4.4,0-8.8.07-13.19,0-2.77-.05-3.39-.65-3.41-3.45-.08-9.35,0-18.7,0-28a6,6,0,0,1,.65-2.77l.16-.11C549.66,113.62,551.14,114,552.49,113.25Z"/><path class="cls-12" d="M622.56,470.41h-31c-1.51,0-3-.14-4.54,0s-1.86-.55-1.9-1.91c-.07-2.54-.32-5.08-.5-7.62,0-1.79.07-3.45,2.61-3,1.06-1,2.39-.74,3.63-.74q14.56,0,29.12,0c1.57,0,3-.12,4-1.59,1.72,1.17,3.46,2.44,3.66,4.67s.48,4.44.55,6.67C628.26,471,626.46,472.1,622.56,470.41Z"/><path class="cls-13" d="M562.16,492.49c.74.73,1.67.41,2.51.41q28.91,0,57.8,0c.91,0,2.18.59,2.58-.95,1.49,1.43,2,5.32,1,7.72H558.8A26.32,26.32,0,0,1,562.16,492.49Z"/><path class="cls-14" d="M25.45,393.08H38.93a1.43,1.43,0,0,1,1,.95c.59,6.31.21,12.62.21,18.93a2.64,2.64,0,0,1-.72,1.75c-5.59,0-11.18,0-16.77.06-1.77,0-2.36-.44-2.32-2.27.11-5.67.09-11.35,0-17,0-1.71.41-2.57,2.27-2.37A21.31,21.31,0,0,0,25.45,393.08Z"/><path class="cls-15" d="M612.08,45.54l-22.19,0c.78-1.75,2.73-.78,4-1.84a1.81,1.81,0,0,0-2.46-.32c-.59.35-1.05,1-1.88.83l0-6.31a5,5,0,0,1,1.37-.39q18.08,0,36.15.1c1.48,2.46.79,5.27,1.27,7.88a1.27,1.27,0,0,1-.51,1.08c-.35-.3-.7-.88-1-.88-3.16,0-6.35-.55-9.48.35-2-1.79-4-3.69-7-3.67a7.15,7.15,0,0,0-4.78,1.53,23.17,23.17,0,0,0,4.49.65C610.81,44.56,611.87,44.27,612.08,45.54Z"/><path class="cls-7" d="M38.37,228.4a4.19,4.19,0,0,0-1.86,3.9c0,9.12,0,18.24,0,27.36,0,1.31.09,2.57,1.32,3.39.45.24.39.52.08.83-1,0-1.92.05-2.88,0-2.23-.13-3.37-1.23-3.38-3.49,0-9.59,0-19.18,0-28.77,0-2.27,1.29-3.35,3.39-3.55,1.11-.11,2.23,0,3.35,0,.2.09.26.17.19.24A.29.29,0,0,1,38.37,228.4Z"/><path class="cls-3" d="M610.19,105.55c-.72,2.27-1.45,4.53-2.27,7.11-1.77-4.84-2.17-9.75-4-14.23,1.31-1.5,1.32-3.52,2.11-5.22.39-.83.29-1.92,1.25-2.47,1.06.63,1.38,1.76,1.88,2.76.57,2,2.65,3.19,3,5.33A10.19,10.19,0,0,1,610.19,105.55Z"/><path class="cls-16" d="M39.38,414.71l0-21.14a1.36,1.36,0,0,1,2,0q0,10.59,0,21.19Z"/><path class="cls-17" d="M589.56,44.17c1.37-1.46,2.75-2.86,4.84-1.13a1.45,1.45,0,0,1,.59,1c0,.41-.54.49-.94.58l-4.16.93-.19,0-.19.05C589.53,45.07,589.55,44.62,589.56,44.17Z"/><path class="cls-18" d="M37.93,263.88c0-.28,0-.56-.08-.83,2.68.88,5.45.22,8.17.44,1,.08,2-.35,2.94.39Z"/><path class="cls-19" d="M38.37,228.4c0-.11,0-.22,0-.34l10.1,0C45.15,228.92,41.74,228.25,38.37,228.4Z"/><path class="cls-20" d="M609.11,93.5a5.16,5.16,0,0,1-1.88-2.76l1.46-.06C609.48,91.52,609,92.56,609.11,93.5Z"/><path class="cls-21" d="M624.14,455.4c.14,2-.71,2.6-2.79,2.58-11.38-.13-22.77-.08-34.16-.1-.34-2.4.27-4.87-.49-7.24a2.31,2.31,0,0,1-.79-1.93c-.43-7.89-1-15.78-1.51-23.67-.59-8.44-1.11-16.89-1.72-25.33-.41-5.57-.76-11.15-1.12-16.73q-.87-13.26-1.78-26.53c-.4-5.81-.73-11.64-1.12-17.45q-.85-13-1.74-26.06c-.4-5.65-.75-11.31-1.13-17-.58-8.76-1.19-17.52-1.75-26.29-.39-6.06-1-12.1-1.11-18.17-.06-2.94-1.09-5.86-.16-8.81.65-1.09,1.76-1,2.78-1,11.51,0,23,0,34.54,0a4.34,4.34,0,0,1,4,2.2c1.56,2.41,3.17,4.8,4.79,7.18,3,4.36,7,6,12.35,5.68a59,59,0,0,0,19.73-4.66c5.79-2.47,10.71-6.34,15.71-10.07,1.18-.88,2.18-2.19,3.91-2.06q2.91,20.76,5.82,41.52,3.51,25.27,7,50.55,3.72,27,7.46,54.1,3.48,25.15,7,50.31c.91,6.64,1.76,13.3,2.64,19.94.47,1.18,0,1.83-1.17,2.1a10,10,0,0,1-2.38.18q-14.82,0-29.65,0c-1.67,0-3.45.14-4.2-1.92-1.57-7.68-2.42-15.47-3.51-23.23q-4.21-30-8.45-60.09c-4.73-34-9.58-67.92-14.31-101.89-.74-5.34-.22-4.88-5.72-4.9-4.71,0-9.43,0-14.15,0-2.73,0-2.82.18-2.73,2.85.45,12.69,1.43,25.35,2.08,38,.71,13.64,1.59,27.26,2.39,40.9.64,11,1.2,22,1.92,33,.79,12,1.45,24.08,2.2,36.11.6,9.72,1.29,19.44,1.57,29.18.05,1.92.58,3.8.47,5.73C624.72,453.45,624.89,454.52,624.14,455.4Z"/><path class="cls-9" d="M701.91,146.31c4.65,8.91,9.56,17.7,13.87,26.77,4.6,9.67,1.2,20.9-7.59,27.45-12.45,9.29-24.83,18.67-37.26,28a3,3,0,0,0-1.38,2.36,8.14,8.14,0,0,0-3.25,2c-5.57,4.31-11.19,8.53-18.1,10.55a36.07,36.07,0,0,1-15.34,1.53,8,8,0,0,1-6.38-4.08,11.58,11.58,0,0,0-3.9-4.15,7,7,0,0,1-3.46-6.65,3.45,3.45,0,0,0-1.94-3.48c-1.95-1.23-3.83-2.67-4.15-5.26.22-1.71,1.56-1.59,2.74-1.6,3.91-.05,7.83,0,11.75,0a5.34,5.34,0,0,0,2.34-.17,8.28,8.28,0,0,0-1.72-1.68,8.56,8.56,0,0,1-2.7-8.05,3.57,3.57,0,0,1,2-3.09c1.4-.61,2.46.24,3.43,1.11,3.88,3.45,7.85,6.8,11.66,10.32,1.56,1.44,2.55,1.23,4,0,4.31-3.7,8.69-7.3,13.06-10.92q6.78-5.68,13.59-11.36c4.86-4,9.65-8.12,14.56-12.09a2.3,2.3,0,0,0,.55-3.51c-1.87-2.89-3.08-6.14-4.92-9.05a4.42,4.42,0,0,1-.94-2.67c3.44-4.47,7.2-8.68,10.76-13,2.46-3,5-6,7.43-9A1,1,0,0,1,701.91,146.31Z"/><path class="cls-4" d="M673.56,196.26l-13.47,11c-1.18-1.28-.8-2.87-.8-4.34q0-41.52,0-83c0-4.93,0-4.93-5-4.93-7,0-13.91,0-20.87,0a8.2,8.2,0,0,1-3.77-.46,1.59,1.59,0,0,1-.45-2.12c1.91-4.51,3.86-9,6.19-13.33a1.41,1.41,0,0,1,.72-.59c9.09.12,18.21-.59,27.27.35a34.28,34.28,0,0,1,25.76,15.52c3.75,5.54,7,11.43,10.42,17.17a3.75,3.75,0,0,1,.26.9,4,4,0,0,1-1.63,1.7q-11.79,8.85-23.59,17.68c-.93.69-1.82,1.71-3.19.88a107.29,107.29,0,0,1-6-14.56c0-.47-.28-.9-.27-1.17a10,10,0,0,0,.67,2.43c2.1,12.22,3.66,24.51,5.51,36.76.85,5.69,1.71,11.39,2.48,17.09A4.37,4.37,0,0,1,673.56,196.26Z"/><path class="cls-22" d="M613.35,221.27c.71,2.62,2.75,4,4.92,5.26a2.14,2.14,0,0,1,1.33,2.41,7.55,7.55,0,0,0,4,7.79,5.63,5.63,0,0,1,2.55,2.46c2.31,5.26,6.85,5.62,11.66,5.42,10-.42,18.47-4.47,26.06-10.72,1.35-1.11,2.85-2.06,4.18-3.2.69-.6,1-.4,1.46.19l1,9.08c-5,3.46-9.54,7.44-14.84,10.41a55.52,55.52,0,0,1-23.33,7c-4.42.34-8.43,0-11.77-3.06a24.87,24.87,0,0,1-5.12-7.14c-1.94-3.78-4.57-5-8.88-4.89-11.17.38-22.36.15-33.55.17-.89-.23-1-1-1-1.7-.21-6.06-1.13-12.07-1-18.14-.09-2.12,1-3,3.06-3,12.22.07,24.44-.27,36.65.18C611.88,219.77,613.19,219.57,613.35,221.27Z"/><path class="cls-8" d="M699.86,470.41c2.27,6.31,5.79,11.4,12.35,14a14.51,14.51,0,0,1,7.89,8c-.38,1.56-1.72,1.22-2.72,1.25-3.74.11-7.49,0-11.23,0H674.6a10.05,10.05,0,0,1-3.78-.37,2.84,2.84,0,0,1-1.37-2.63c-.44-6-1.27-12.06-1.69-18.1-.06-.88-.21-1.77.53-2.48a4.61,4.61,0,0,1,2.55-.52q13,0,26.12,0C698,469.61,699.07,469.53,699.86,470.41Z"/><path class="cls-23" d="M699.86,470.41H668.24c-1.44,1-3,.67-4.62.53a1.86,1.86,0,0,1-1.75-1.67,93.79,93.79,0,0,1-1.32-9.43c-.15-2,1.84-2.36,2.92-3.42a2.26,2.26,0,0,0,2.31,1.55c10.86-.08,21.72-.06,32.59,0,1.17,0,2.07-.1,2-1.56.44.85.43,2,2,1.87,1.18-.13,1,1.06,1.14,1.74.45,2.75.72,5.52,1.18,8.27.28,1.7-.28,2.32-2,2.13A21.17,21.17,0,0,0,699.86,470.41Z"/><path class="cls-3" d="M671.6,152.62c.94.26,1.47-.44,2.09-.91l24.68-18.51c.44-.33.8-.79,1.42-.79,2.44,2.88,4,6.34,6,9.46.66,1-.17,1.42-.78,1.92-1,.83-2.46,1.19-3.1,2.52-.41.09-.85.11-1.09.55-7.07,5.44-14.77,10-21.93,15.32-2.87,1.9-3.43,1.81-4.57-1.38C673.35,158.1,671.57,155.65,671.6,152.62Z"/><path class="cls-13" d="M670.63,492.91q23.37,0,46.75,0c.92,0,1.94.35,2.72-.49a25.8,25.8,0,0,1,2.37,7.25H671.12C669.89,497.49,669.3,495.27,670.63,492.91Z"/><path class="cls-24" d="M627.81,46.53l.12-1a3.09,3.09,0,0,1,2.45-.75q6.71-.08,13.42,0a3,3,0,0,1,2.43.79,38.5,38.5,0,0,1-2.57,9c-.65.67-1.46.47-2.25.46A8.74,8.74,0,0,0,633.84,59c-1.37,1.9-2.64,1.9-4,0-1-1.42-1.16-3.13-1.34-4.78C628.2,51.63,628,49.08,627.81,46.53Z"/><path class="cls-3" d="M636.08,98.47q-3.45,7.65-6.89,15.31c-.59,1.06-1.18.84-1.77,0q-1.44-3.7-2.9-7.41a17.16,17.16,0,0,1-2.87-7.55c2.57-2.48,5.91-3.89,8.63-6.16.47-1.33,1.74-1.46,2.82-1.88C634.93,93,635,95.94,636.08,98.47Z"/><path class="cls-22" d="M646.23,45.6l-18.3,0c-.75-2.61-.68-5.32-.88-8L648,37.43A34.14,34.14,0,0,1,646.23,45.6Z"/><path class="cls-25" d="M633.1,90.77l-2.82,1.88a1.27,1.27,0,0,1,0-2Z"/><path class="cls-26" d="M535.63,226.65c0,.88.1,1.75.1,2.63q0,74.5,0,149c0,2.13-.45,2.81-2.72,2.8-15.75-.11-31.51-.06-47.27-.06-1-1.18-.64-2.6-.64-3.92q0-45.53,0-91.06c0-1.17.3-2.43-.64-3.43-1-.82-2.28-.58-3.45-.58-10.1,0-20.2,0-30.31,0-1.33,0-2.72.21-3.92-.66-.91-1.37-.64-2.93-.64-4.43q0-37.25,0-74.49c0-1.26.21-2.56-.41-3.76-1-1.07-2.23-.72-3.39-.73H340.71c-5.33,0-5.33,0-5.34-5.26v-7.19a2.7,2.7,0,0,0-.74-2.41,7.34,7.34,0,0,0-3.53-.4c-11.93,0-23.87.08-35.8-.06-5.89.08-11.78.1-17.66,0-3.94-.06-7.88.34-11.81-.23a2.46,2.46,0,0,1-.73-.55q0-45.69-.08-91.38c0-2.35,1.21-2.09,2.69-2.09h130q67.64,0,135.27,0c2.1,0,2.86.4,2.81,2.7-.16,7.59-.06,15.19-.07,22.79-1,.79-2.1.6-3.19.6-8,0-16,0-24.06,0-1,0-2.1-.22-2.83.79a8.31,8.31,0,0,0-.32,3.32q0,48.72,0,97.42a10.35,10.35,0,0,0,.28,3.33c.64,1,1.65.82,2.59.82,4.39,0,8.77,0,13.16,0,1.19,0,2.43-.13,3.34.9a24.71,24.71,0,0,1,1.43,2.44,6.61,6.61,0,0,0,7.24,3.26C534.1,226.57,534.86,226.17,535.63,226.65Z"/><path class="cls-27" d="M504.7,220.28c-.06-.71-.16-1.42-.16-2.13q0-50.86,0-101.73a4,4,0,0,1,.26-2.34c10.31-.22,20.62-.1,30.93-.06,4.12.1,8.24.47,12.35-.21q.06,15.21.13,30.42c0,3.09,0,3.09,3.09,3.09,4.39,0,8.79-.12,13.18.06,2.25.09,3-.49,3-2.86-.12-10.14,0-20.29,0-30.43l43.7,0a5.1,5.1,0,0,1,.75,3.44q0,49.68,0,99.34a5.08,5.08,0,0,1-.75,3.44c-12.45,0-24.89.11-37.34.07-1.63,0-2.37.41-2.24,2.05-.92,0-.91-1.09-1.65-1.3a148.76,148.76,0,0,0-19.12.1,133.7,133.7,0,0,1-17.45,0c-4.2-.4-8.41-.57-12.62-.75C515.37,220.31,510,220.81,504.7,220.28Z"/><path class="cls-1" d="M571.21,220.88l.33,1.6q.59,8.57,1.17,17.14c.07.93-.17,1.91.34,2.79q1.65,25.22,3.28,50.44,1.53,23.31,3.08,46.62,1.82,27.25,3.62,54.5,1.56,23.43,3.1,46.86c.21,3.27.38,6.54.57,9.81.18,2-.81,2.41-2.7,2.41-29.18-.07-58.37,0-87.55-.06-.85,0-1.78.3-2.51-.43.55-1.87,2.15-3.09,3-4.82a68.59,68.59,0,0,0,5-17.9c.79-4.72,1-9.5,1.86-14.21.67-1.71,2.18-1.68,3.62-1.7,4.72,0,9.43,0,14.15,0h31.16c4.28,0,4.28,0,4.31-4.17,0-.56,0-1.12.06-1.67-.09-3.88-.07-7.77,0-11.65,0-2-.75-2.61-2.67-2.64-2.08,0-4.29.63-6.23-.72q0-81,0-162c0-1.2,0-2.39,0-3.59a76.38,76.38,0,0,0,8-6.54,2.23,2.23,0,0,1,1.58-.44c4.29,0,8.58,0,12.87,0A.72.72,0,0,1,571.21,220.88Z"/><path class="cls-28" d="M557.79,407.92c.2,6.76.2,6.76-6.57,6.76-14.77,0-29.54,0-44.31,0-1.27,0-2.36,0-2.78,1.49a12.89,12.89,0,0,0-4.93-.71c-14.21,0-28.41.07-42.61,0-1.75-.07-3.5,0-5.25-.06s-2.35.73-2.09,2.5a59.78,59.78,0,0,0,3.22,12.2,2.9,2.9,0,0,1-2.41,2.87,3.46,3.46,0,0,1-3.7-1.62c-2.34-3.11-2.77-6.9-3.72-10.5-.06-.23-.09-.47-.13-.71-.88-4.81-.88-4.81-5.76-4.68-1.29.09-2.56.06-3.84.06H274.46a25.59,25.59,0,0,1-2.63-.07c-5.41.12-10.83,0-16.24,0a4.5,4.5,0,0,1-2.54-.53c-1.26-2.17-.92-4.43-.34-6.69.86-1.12,2.13-.93,3.29-.93,5.34,0,10.67-.12,16,0,7.62.17,14.76-3.82,15.91-12.9a2.4,2.4,0,0,1,.57-1.29c48.93,0,97.86-.1,146.79.11,4.12,0,8.23-.32,12.36-.15,17.8.75,35.62.64,53.42.38,7.1-.1,14.19-.34,21.29-.34a2.7,2.7,0,0,1,.6,1.54c1.11,8.57,7.66,12.62,14.63,12.62,5.67,0,11.34,0,17,0C555.68,407.29,556.83,407.12,557.79,407.92Z"/><path class="cls-5" d="M135.37,393.05l.06-53.26q0-37.18,0-74.38c1.32.32,1.05,1.44,1.11,2.32.11,1.67,0,3.36,0,5q0,31.8,0,63.59a12.58,12.58,0,0,1-.23,3.52c2.31-6,5.07-11.86,7.65-17.77,7.74-17.74,15.56-35.43,23.31-53.17,1.8-4.12,1.83-4.19,6.41-4.19,14.31,0,28.63,0,42.94,0,1.15,0,2.63-.6,3.27,1.1Q210.7,285.45,201.47,305q-4.4,9.3-8.81,18.6-11.59,24.44-23.19,48.86c-3.23,6.85-6.4,13.73-9.6,20.59a3.76,3.76,0,0,1-2.92.77q-9.34,0-18.68,0C137.25,393.84,136.17,393.91,135.37,393.05Z"/><path class="cls-14" d="M135.37,393.05l24.5,0H188.2a59.51,59.51,0,0,0,12,0h0l.45-.09.33.33a3.33,3.33,0,0,1,.33.86c.27,6.13.1,12.27.1,18.41a3.27,3.27,0,0,1-.66,2.25c-1.38.88-2.94.61-4.44.61q-40.62,0-81.24,0c-2.56,0-5.29-.52-7,2.17-.91-2-2.58-2.22-4.54-2.21-10.44.06-20.88,0-31.33,0a20.1,20.1,0,0,1-3.1-.13,2.08,2.08,0,0,1-2-2c-.23-6.3-.26-12.59,0-18.88a1.59,1.59,0,0,1,.67-1.22l60.15-.1Z"/><path class="cls-3" d="M219.94,265.87c-.62-.75-1.48-.49-2.24-.49-15.27,0-30.53,0-45.8-.05a3,3,0,0,0-3.2,2.12q-8,18.44-16.08,36.83c-5.41,12.34-10.85,24.66-16.73,37v-2.38q0-35.37,0-70.73c0-.91.37-1.93-.42-2.74-1-.44-2.28.31-3.27-.49.89-.9,2.06-.77,3.16-.77q40.93,0,81.89,0c1.1,0,2.27-.12,3.14.81Z"/><path class="cls-7" d="M200.74,393.59l0-.54a1.23,1.23,0,0,1,.82-.46c2.38-.06,2.74-1.58,2.79-3.56a115.67,115.67,0,0,1,3.89-26.94,27.67,27.67,0,0,1,3.92-9.2c3.06-4.3,6.86-4.16,9.72.29,2.11,3.29,2.89,7,3.81,10.75.11.44,0,1,.44,1.29A56,56,0,0,1,228,376.41c.56,5.22.76,10.48,1.12,15.72a11.58,11.58,0,0,1,1.16,6.24c-.15,5.34.24,10.7-.22,16-1.23,4.49-1,9.17-1.75,13.73-1.13,6.53-2.1,13.09-5,19.16a16.93,16.93,0,0,1-2.62,4.3,4.09,4.09,0,0,0,2.44.28q17,0,34,0c1.24,0,2.59-.3,3.63.75-.75.7-1.68.41-2.52.42-13.2,0-26.39,0-39.58,0a17.18,17.18,0,0,1-3.53-.52c-1.75,0-2.44-1.38-3.18-2.59a40.21,40.21,0,0,1-4.68-12.53,112.34,112.34,0,0,1-3-23c-.81-5.22-.56-10.48-.46-15.72C203.9,396.18,203.68,394.15,200.74,393.59Z"/><path class="cls-29" d="M363.89,381l-63,.05c-11.18,0-22.36,0-33.55,0-1.69,0-2.4-.33-2.36-2.22.12-6.79.07-13.58.08-20.37a2.53,2.53,0,0,1,.68-.43c3.66-.14,7.06,1.2,10.54,2q41.24,9.33,82.47,18.68a15.23,15.23,0,0,1,5,1.55A.55.55,0,0,1,363.89,381Z"/><path class="cls-1" d="M132.09,256.75a53.94,53.94,0,0,1,0-8.14l96.42-.07c1,0,1.92,0,2.88.05a10.64,10.64,0,0,1,.05,8.34,5.76,5.76,0,0,1-3.48.61H135.73C134.48,257.54,133.15,257.72,132.09,256.75Z"/><path class="cls-28" d="M132.09,256.75l99.25,0a9.44,9.44,0,0,1,.07,8.22l-11,0-70.7,0-17.49,0A46.45,46.45,0,0,1,132.09,256.75Z"/><path class="cls-28" d="M132.18,175.16a46.45,46.45,0,0,1-.09-8.17c.91-.84,2.07-.76,3.17-.76q46.61,0,93.21,0a4.92,4.92,0,0,1,3,.61c1.25,2.33.71,4.8.5,7.22a1.42,1.42,0,0,1-1.65,1.34c-7-.12-14,.22-21-.19Z"/><path class="cls-8" d="M265.07,281.23V264a1.52,1.52,0,0,1,.69-.38c4,.41,7.81,1.64,11.69,2.58,18.12,4.36,36.13,9.14,54.27,13.44,1,.25,2.48,0,2.91,1.55-.77.89-1.84.8-2.85.81-2.6,0-5.19.07-7.79,0q-8.85.15-17.7,0c-12.85.13-25.7,0-38.54,0a5.5,5.5,0,0,1-1.89-.25A2.47,2.47,0,0,1,265.07,281.23Z"/><path class="cls-30" d="M557.79,407.92c-7,0-14,.06-21,0-8.41-.08-14.84-6.74-14.41-14.8l25.85,0c2.62,0,5.25.08,7.87,0,1.26,0,1.89.26,1.86,1.7C557.81,399.17,557.82,403.54,557.79,407.92Z"/><path class="cls-30" d="M288.48,393.11a14.39,14.39,0,0,1-14.57,14.81c-7,.06-13.9.06-20.85.08l-.33-.32c-.62-4.83-1-9.66.23-14.47Z"/><path class="cls-14" d="M229.48,414.69c0-5.55,0-11.1,0-16.66a36.44,36.44,0,0,0-.35-5.9c.58.94,1.49,1,2.47,1,2.85,0,5.69,0,8.54,0a3.36,3.36,0,0,1,.56,2.26,11.8,11.8,0,0,0,9.58,11.53,7.2,7.2,0,0,1,2.7.87l.11.22c0,2.21,0,4.41,0,6.61a3.14,3.14,0,0,1-2.65.83q-9.1.07-18.22,0A3.42,3.42,0,0,1,229.48,414.69Z"/><path class="cls-26" d="M226.15,365.22a1.55,1.55,0,0,1-.06.23c-.09.23-.31.45-.39.09a54.81,54.81,0,0,0-2.51-8.43,19.86,19.86,0,0,0-2.64-4.8c-1.88-2.5-4.55-2.67-6.74-.42-2.76,2.85-3.91,6.55-4.88,10.23A116.26,116.26,0,0,0,205,389.83c-.07,3.25-.23,3.35-4.23,3.22l-.15.05a4.32,4.32,0,0,1,0-2.39c.05-1.56.09-3.13.14-4.69.48-1.12-.06-2.35.35-3.48l.09-2.39c.53-.74,0-1.64.38-2.4a104.71,104.71,0,0,1,4.89-25.41,30.86,30.86,0,0,1,4.49-9,4.9,4.9,0,0,1,2.74-1.71,4.27,4.27,0,0,1,2.35,0c3,1.53,4.43,4.3,5.62,7.18A65.09,65.09,0,0,1,226.15,365.22Z"/><path class="cls-31" d="M571.21,220.88c-4.35,0-8.71-.07-13.07-.16-1.23,0-1.84.78-2.53,1.53-2.1,2.31-4.29,4.47-7.45,5.26-2.45.09-4.88-.54-7.33,0a4.23,4.23,0,0,1-3-.59c-.69-.4-1.39-.88-2.2-.23-5.41,1.91-9.29.19-11-4.88-.34-.64-.21-1.09.54-1.21a11.64,11.64,0,0,1,1.67,0c2.73,0,2.73,0,2.77,2.54,1.4-.51,1.89-2.47,3.68-2.33,11.76-.15,23.52-.32,35.28-.43C569.47,220.3,570.54,219.83,571.21,220.88Z"/><path class="cls-32" d="M363.89,381v-.41a9.07,9.07,0,0,1-.3-3.32V286.87c0-.4,0-.8,0-1.2,0-2.95-.21-3.15-3.13-3.16-7.27,0-14.55,0-21.82,0-1.37,0-3,.29-3.54-1.65a10.39,10.39,0,0,1-.31-3.33q0-45.69,0-91.38c0-1.41-.32-2.91.75-4.14,1,1,.42,2.25.45,3.36.09,3.44.08,6.88,0,10.32,0,1.36.44,1.78,1.79,1.77q30-.12,60-.15c16,0,32,.06,48,.1.4,0,.81,0,1.06.38a3.48,3.48,0,0,1-2.7.73c-10.55,0-21.11.1-31.66,0-5,.08-10,.09-15,0q-17.23.15-34.48,0c-7.59.13-15.18,0-22.77.06-3.24,0-3.38.14-3.38,3.38q0,37.51,0,75c0,3.42.13,3.52,3.47,3.55,7.51,0,15-.09,22.54.06,6.84-.1,13.67,0,20.51,0a5.29,5.29,0,0,1,2.12.32,1.14,1.14,0,0,1,.62.67,1.17,1.17,0,0,1-.63.66c-3.08.69-6.21.24-9.32.33-2.71.08-5.43,0-8.15,0-1.59,0-2.37.66-2.35,2.28,0,1,0,1.92,0,2.88q0,44.26,0,88.52a14.18,14.18,0,0,1-.25,4.06,2.58,2.58,0,0,1-.52.79Z"/><path class="cls-33" d="M253,407.78a12.67,12.67,0,0,1-12.84-14.66l12.42-.07q.25-.32.45.06l0,.1Q253,400.5,253,407.78Z"/><path class="cls-14" d="M209.36,175.21c6.6,0,13.21-.08,19.81,0,1.81,0,2.41-.54,2.27-2.31-.15-2-.08-4-.1-6a10.52,10.52,0,0,1,0-8.06c0-.16,0-.32,0-.47,1.68.75,3.47.38,5.2.38,1.36,0,2.06.3,2,1.86-.08,4.23-.06,8.47,0,12.7,0,1.31-.4,1.78-1.77,1.86-9.17.58-18.34.43-27.52.41Z"/><path class="cls-34" d="M231.41,264.93c0-2.74,0-5.48-.07-8.22s0-5.42.08-8.12c2-1,4.06-.37,6.09-.35,1,0,1.1,1,1.1,1.82q0,6.7,0,13.42c0,.84-.12,1.8-1.12,1.81C235.47,265.3,233.38,265.9,231.41,264.93Z"/><path class="cls-35" d="M485.36,281.67c.63.86.33,1.86.33,2.78q0,46.73,0,93.46c0,1,.05,2.07.09,3.11-7.43,0-14.85.06-22.27.06L386,381a.91.91,0,0,1,.46-.78,9.77,9.77,0,0,1,4.26-.43H480.4c4.14,0,4.15,0,4.15-4.08q0-44.85,0-89.72C484.57,284.55,484.19,283,485.36,281.67Z"/><path class="cls-36" d="M252.5,197.18a2.76,2.76,0,0,1,.06-.4c.71.65.44,1.5.44,2.27q0,74.23,0,148.47c0,.62-.06,1.24-.1,2.15a4.79,4.79,0,0,1-.37-2.82q0-73.16,0-146.31C252.53,199.42,252.51,198.3,252.5,197.18Z"/><path class="cls-35" d="M265.5,264l-.44,0q0-41.09,0-82.17a.74.74,0,0,1,.41.13c.86.92.75,2.07.75,3.18q0,37.83,0,75.66A4.37,4.37,0,0,1,265.5,264Z"/><path class="cls-35" d="M265.07,281.23l.44,0a4.43,4.43,0,0,1,.76,3.19q0,35.44,0,70.89a4.36,4.36,0,0,1-.77,3.18l-.45,0Q265.07,319.88,265.07,281.23Z"/><path class="cls-37" d="M253,393.11h-.23l-.22-.06V350.93H253Z"/><path class="cls-3" d="M535.73,114c-10.31.29-20.62.16-30.93.06,5.54-.43,11.09-.09,16.64-.18,4.76-.07,9.52-.08,14.28-.11Z"/><path class="cls-38" d="M386,380.6c0,.15,0,.29,0,.44H364.85c0-.14,0-.28,0-.42a3.13,3.13,0,0,1,2.21-.74c5.65,0,11.31-.07,17,0a3.48,3.48,0,0,1,1.61.39Z"/><path class="cls-39" d="M200.21,393.09a31.31,31.31,0,0,1-12,0Z"/><path class="cls-3" d="M201.09,382.54a6.55,6.55,0,0,1-.35,3.48C200.82,384.86,200.32,383.64,201.09,382.54Z"/><path class="cls-3" d="M201.56,377.75a3.41,3.41,0,0,1-.38,2.4C201.27,379.34,200.89,378.46,201.56,377.75Z"/><path class="cls-3" d="M200.6,390.71c0,.79,0,1.59,0,2.39l-.4,0C200.31,392.28,199.94,391.41,200.6,390.71Z"/><path class="cls-3" d="M216,341.64h-2.35A1.79,1.79,0,0,1,216,341.64Z"/><path class="cls-26" d="M67.79,393.19c0,6.55,0,13.1-.1,19.65,0,1.7.68,1.93,2.12,1.92,11.74,0,23.49.06,35.23-.08,2.36,0,3.37.55,3.08,2.92a3.54,3.54,0,0,1,.53,3c-1,8.33-2.11,16.65-5,24.59a21.18,21.18,0,0,1-3,5.72c-.68.88-1.34,1.83-2.67,1.76l-.86.06-36.45-.1H55.76c5.51-7,6.81-15.38,8.15-23.74a176.43,176.43,0,0,0,1.88-32.39c-.28-11.63-1.31-23.18-4.38-34.46a27.92,27.92,0,0,0-3.74-8.76c-2.79-4-6.07-3.91-8.57.22-3.51,5.8-4.58,12.34-5.84,18.82C42,379,41.93,385.87,40.89,392.62c-1.24.88-1.61.84-1.67-.35a7.93,7.93,0,0,1,.18-3.49v-3.86c.64-1-.12-2.28.47-3.33v-2.43c.59-.71-.08-1.67.47-2.38,1.37-10.15,2.6-20.33,7.18-29.69a13.7,13.7,0,0,1,2.68-3.93c2.28-2.19,5-2,7,.55,3.72,4.79,5.4,10.44,6.64,16.21a155.36,155.36,0,0,1,3.5,27.1C67.42,389.06,67.66,391.13,67.79,393.19Z"/><path class="cls-40" d="M108.57,263.41l-41,0c-2.92,0-3,0-2.65-3,1-7.48,2.11-15,3.16-22.43s2-14.81,3-22.21,2.13-15,3.17-22.43,2-15,3.07-22.45a18.58,18.58,0,0,1,.56-3.28,4.59,4.59,0,0,1,4.61-3.49c9.6,0,19.19,0,28.79,0,1.53,0,2.22.37,2,2-.13,1.26-.08,2.55-.11,3.83a3.13,3.13,0,0,1-3.91-.19,4,4,0,0,0-3.72-1.6,18.63,18.63,0,0,1-3.08,0,6.23,6.23,0,0,0-5.7,2.12c-2.28.67-4.61.29-6.91.34-4,.09-4.52.5-5,4.46Q82.47,194.66,80,214.27c-1.07,8.56-2.11,17.13-3.21,25.68-.46,3.52-.4,3.61,3.23,3.62,5,0,9.9,0,14.86,0a17.89,17.89,0,0,1,7.46,1.48,4.25,4.25,0,0,1,.94.62c.92.88,1.82,1.8,2.7,2.72a3.85,3.85,0,0,0,3.64,1.35,22.36,22.36,0,0,1,3.64,1.71V263C111.77,264,110.17,263.74,108.57,263.41Z"/><path class="cls-1" d="M231.38,158.88q0,4,0,8.06l-89.18,0H132.09a53.94,53.94,0,0,1,0-8.14q39.44,0,78.88-.08C217.79,158.77,224.58,158.84,231.38,158.88Z"/><path class="cls-3" d="M108.57,263.41c1.51-.82,3.13-.23,4.69-.39,0,1,.07,1.92.07,2.88V377.4c0,.72,0,1.44,0,2.15-.11,1.42-.67,2.5-2.29,2.53s-2.36-1.06-2.42-2.61c0-.72,0-1.44,0-2.16Z"/><path class="cls-41" d="M109.52,169.37c1.15.85,2.48.41,3.72.55,0,4.39.09,8.79.09,13.18q0,34.18-.07,68.35c-1.56.32-2.63-.66-3.77-1.44a2,2,0,0,1-.52-.8,13,13,0,0,1-.25-3.57q0-36,0-71.92a11.6,11.6,0,0,1,.26-3.57A1.78,1.78,0,0,1,109.52,169.37Z"/><path class="cls-3" d="M34.61,321.33v18.95c0,1.37.13,2.94-1.89,2.9s-1.95-1.49-1.95-2.93c0-12.47-.09-24.94,0-37.41a27.8,27.8,0,0,1,7.5-18.94c.91-1,1.95-1.94,3.25-.83,1.46,1.25.52,2.38-.45,3.46a25.15,25.15,0,0,0-6.5,17.3Z"/><path class="cls-42" d="M45.27,281.35c-1.61,0-2.7-1.46-1.76-2.73a24,24,0,0,1,4.15-4.28,1.75,1.75,0,0,1,2.84,1.54C50.49,277.21,46.57,281.32,45.27,281.35Z"/><path class="cls-7" d="M56.3,259.18v-4.84l4.31,0a2.4,2.4,0,0,1,0,4.8C59.17,259.18,57.73,259.18,56.3,259.18Z"/><path class="cls-43" d="M39.4,388.78c0,1,0,2.08,0,3.12s.46,1.55,1.47.72a1,1,0,0,1,.43,1h-2l-.42-.49C39.15,391.65,38.44,390.13,39.4,388.78Z"/><path class="cls-44" d="M39.88,381.59c-.16,1.11.45,2.32-.47,3.33C39.6,383.81,39,382.59,39.88,381.59Z"/><path class="cls-45" d="M40.36,376.78c-.1.8.33,1.71-.47,2.38C40,378.36,39.56,377.44,40.36,376.78Z"/><path class="cls-1" d="M271.69,414.69H437.41c1.51,3.13,1,6.58,1.49,9.87a103.65,103.65,0,0,0,4,18.94c.95,2.81,2,5.56,4.21,7.69a2.07,2.07,0,0,1,.73,1.47c-.79.58-1.7.32-2.56.32H263.79a4.52,4.52,0,0,1-2.57-.27c1.14-2.43,3.2-4.24,4.19-6.84,3-7.89,4.19-16.13,5.21-24.43C270.9,419.19,270.65,416.83,271.69,414.69Z"/><path class="cls-1" d="M98,452.64c4.16-3.3,5.35-8.17,6.65-12.91a114.87,114.87,0,0,0,3.48-22.13c.08-2.57,1.52-2.93,3.85-2.93,28.78.09,57.56.06,86.33.06.8,0,1.6,0,2.4-.05,1.47-.91,2.91-1.15,4.27.19.58,10.28,1.81,20.45,5.31,30.21,1,2.87,2.36,5.57,4.85,7.5-.75.7-1.68.41-2.53.41q-56,0-112.06,0C99.69,453,98.77,453.27,98,452.64Z"/><path class="cls-46" d="M447.86,452.67c-2.84-2-4.14-5-5.26-8-2.78-7.67-3.89-15.69-4.73-23.75-.22-2.05-.31-4.12-.46-6.18,4.89.14,4.82.15,5.71,5,.66,3.6,1.36,7.23,3.23,10.46.68,1.18,1.42,2.43,3,2.35s2.36-1.15,2.85-2.5a111.21,111.21,0,0,0,3.37-14.55,1.07,1.07,0,0,1,.57-.72q23-.06,46-.11c1.09,0,2.13-.1,2,1.48-.76,9.44-1.83,18.83-4.91,27.85-1.11,3.23-2.39,6.4-5.28,8.56a12.62,12.62,0,0,1-3.77.46q-18.68,0-37.34,0A26.64,26.64,0,0,1,447.86,452.67Z"/><path class="cls-26" d="M271.69,414.69c-.57,10.78-1.84,21.43-5.77,31.58-1,2.54-2.28,4.93-4.7,6.45l-.23-.07H219.2c6.62-8.88,7.48-19.19,9-29.38.41-2.85-.44-5.93,1.32-8.58l23.56-.08Z"/><path class="cls-47" d="M625.61,32V15.83h.24V32Z"/><path class="cls-1" d="M670.63,492.91c-.25,2.28.4,4.5.49,6.75H626a38.57,38.57,0,0,0-1-7.72l-2.19-18.45c-.12-1-.2-2.06-.3-3.08,5.31-.16,5.29-.16,4.73-5.56-.15-1.5-.21-3-.3-4.53-.07-1.09.12-2.14-1.64-2.22s-.39-2-1.21-2.7c-.81-14.28-1.59-28.57-2.43-42.84q-2.12-36.26-4.27-72.51-1.79-30.87-3.53-61.74c-.2-3.43-.38-6.86-.67-10.28-.12-1.43.25-2,1.79-2q10,.1,19.92,0c1.48,0,1.87.57,2.06,1.92q6.62,47.34,13.31,94.69,6.58,46.86,13.15,93.74c-.2.66.35,1.81-1,1.75-1.65-.08-1.52.85-1.34,2,.45,2.81,1,5.63,1.21,8.46.13,1.49.71,1.87,2.06,1.77s2.54,0,3.81,0q1,10.32,2,20.65A14.53,14.53,0,0,0,670.63,492.91Z"/><path class="cls-14" d="M56.24,372.89c2.55,4.22,3.11,9,3.75,13.71a97.34,97.34,0,0,1,1,18.84c-.44,7.31-.81,14.65-3.22,21.67a9.22,9.22,0,0,1-1.45,3c-1.78-.81-2-2.58-2.51-4.14a69.47,69.47,0,0,1-2.48-14.15,117.1,117.1,0,0,1,1-28.18,41.41,41.41,0,0,1,2.2-8.33C54.82,374.34,55.1,373.29,56.24,372.89Z"/><path class="cls-28" d="M56.24,372.89c-2.35,4.79-3.09,10-3.94,15.17-.61,3.72-.38,7.46-.73,11.19a63.59,63.59,0,0,0,.39,12.4A74.13,74.13,0,0,0,54.22,425a21.83,21.83,0,0,0,2.06,5.08c-1.86,3.19-4,3.23-5.76,0a30.8,30.8,0,0,1-3.25-10.95c-1.83-13-1.93-26.07.77-39A23.26,23.26,0,0,1,50.57,373C52.4,369.83,54.18,369.82,56.24,372.89Z"/><path class="cls-15" d="M641.1,68.62a4.42,4.42,0,0,1-4.57-4.68A4.74,4.74,0,0,1,641,59.27,5,5,0,0,1,646.12,64C646.15,66.66,644,68.62,641.1,68.62Z"/><path class="cls-48" d="M621.65,98.81a34,34,0,0,1,2.87,7.55c-4.91,2.08-9.66,1.41-14.33-.81q.94-3.36,1.91-6.72c2.45,2.4,3.2,5.92,5.55,8.65C619,104.48,620.35,101.64,621.65,98.81Z"/><path class="cls-49" d="M609.07,86.47A39.71,39.71,0,0,0,625,83.56a3.35,3.35,0,0,1,1.15,0c-4.34,4.52-9.71,5.69-15.73,4.92C609,88.26,608.92,87.52,609.07,86.47Z"/><path class="cls-50" d="M612.08,45.54l-7.94-1.18a7.19,7.19,0,0,1,7-2.58c2.67.35,5.05,1.42,6.13,4.22Z"/><path class="cls-51" d="M611.17,51.19c0,1.51.09,2.91-1.58,3s-1.86-1.35-1.87-2.7.11-2.8,1.79-2.78S611.27,50.15,611.17,51.19Z"/><path class="cls-1" d="M628.91,73.42V70.94c1.29-.39,2.6-.71,3.87-1.17a1.87,1.87,0,0,1,2.47,1.28c.51,1.34-1,.9-1.53,1.09C632.16,72.68,630.52,73,628.91,73.42Z"/><path class="cls-52" d="M593.9,50c-.09,1.08.24,2.63-1.44,2.69s-1.52-1.46-1.53-2.62-.24-2.69,1.41-2.75S593.85,48.76,593.9,50Z"/><path class="cls-8" d="M611.12,220.35V114.13c4.58,0,9.17,0,13.75-.09a4.45,4.45,0,0,0,2.55-.27,1.64,1.64,0,0,0,1.77,0,5.21,5.21,0,0,0,2.59.27c8.56,0,17.11.07,25.66,0,2.09,0,2.67.49,2.66,2.63q-.11,43.77-.05,87.53c0,1,0,2.08,0,3.11-3.05,3.16-6.68,5.63-9.92,8.55-1.53,1.38-3.22,2.6-4.74,4-.75.69-1.17.71-1.95,0-4.31-3.9-8.67-7.73-13-11.58-.77-.68-1.56-1.68-2.66-1.24-1.29.5-1.67,1.77-1.86,3.11-.52,3.68,1.16,6.3,3.89,8.45.55.43,1.32.61,1.64,1.75h-16.2c-.81,0-1.64-.07-1.92,1C612.87,220.32,612,220.46,611.12,220.35Z"/><path class="cls-1" d="M671.6,152.62c1,2.5,2,5,3,7.5,1.3,3.23,1.29,3.23,4.21,1.56a10.47,10.47,0,0,1,3.79,6.81c2.16,4,4.26,8,6.51,12,.84,1.48.63,2.4-.66,3.45-5,4.07-10,8.22-14.91,12.35q-3.76-25.8-7.52-51.58c-.28-2-.52-4-.78-5.93-.11-.45-.44-1,.47-1Q668.67,145.19,671.6,152.62Z"/><path class="cls-22" d="M682.62,168.49q-1.9-3.41-3.79-6.81c4.65-3.84,9.83-6.93,14.8-10.32,2.33-1.59,4.43-3.59,7.19-4.5-5.58,7.34-11.67,14.26-17.58,21.34C683.11,168.36,682.83,168.39,682.62,168.49Z"/><path class="cls-53" d="M665.73,137.78l-.47,1a3.17,3.17,0,0,1-.33-2.53C665.57,136.59,665.57,137.23,665.73,137.78Z"/><path class="cls-54" d="M662.22,118.34a2,2,0,0,1,0,1.79A1.66,1.66,0,0,1,662.22,118.34Z"/><path class="cls-55" d="M661.7,116.68a1.5,1.5,0,0,1,0-1.59A1.19,1.19,0,0,1,661.7,116.68Z"/><path class="cls-56" d="M660.47,105.08v2C659.85,106.52,660,106,660.47,105.08Z"/><path class="cls-57" d="M660.78,110.56c-.31-.74-.37-1.23,0-1.73C661.14,109.33,661.07,109.82,660.78,110.56Z"/><path class="cls-58" d="M659.86,103.72c-.45-.49-.31-1-.15-1.52C660.32,102.67,660.05,103.17,659.86,103.72Z"/><path class="cls-56" d="M663.59,128.35a1.65,1.65,0,0,1,.11,1.74C663.24,129.63,663.4,129.14,663.59,128.35Z"/><path class="cls-58" d="M663.16,126.85a1.93,1.93,0,0,1,0-1.77A1.62,1.62,0,0,1,663.16,126.85Z"/><path class="cls-54" d="M662.85,123.61c-.57-.72-.34-1.22-.35-1.92C663.19,122.37,662.82,122.88,662.85,123.61Z"/><path class="cls-57" d="M664.1,131.81c.44.68.22,1.16.14,1.81A1.62,1.62,0,0,1,664.1,131.81Z"/><path class="cls-13" d="M485.36,281.67c0,9.35-.06,18.7-.07,28.05q0,33.81,0,67.61c0,3.27,0,3.27-3.16,3.27H386a4.28,4.28,0,0,1-.78-3.17q0-46.26,0-92.52a4.33,4.33,0,0,1,.78-3.17h0a3.28,3.28,0,0,1,2.47-.67q18.12,0,36.24,0a4.84,4.84,0,0,1,1.65.22,1.67,1.67,0,0,1,.72.59,8,8,0,0,1,.45,3.76c0,7.59,0,15.18,0,22.77,0,3.11.17,3.26,3.23,3.28q4.92,0,9.83,0c3,0,3.15-.19,3.16-3.11,0-7.75,0-15.5,0-23.25a10.19,10.19,0,0,1,.31-3.56c.75-1.23,1.72-1.26,2.83-.51q18,0,35.92.09C483.68,281.34,484.6,281,485.36,281.67Z"/><path class="cls-13" d="M446.92,281.25c-.8.1-1.68-.29-2.37.4a3.22,3.22,0,0,1-2.42.82q-6.56.07-13.1,0a3.1,3.1,0,0,1-2.22-.71l-.07-.06a5.26,5.26,0,0,0-2.58-.21q-17.81,0-35.61,0a5.7,5.7,0,0,1-2.59-.21l-23,0a4.34,4.34,0,0,1-.77-3.18q0-38.56,0-77.13c0-1.1-.07-2.26.87-3.12l34.43,0c.92,1,.78,2.22.78,3.4,0,6.22,0,12.44,0,18.66,0,2.82.23,3,3,3q3.72,0,7.42,0c2.74,0,2.95-.23,3-3,0-6.22,0-12.44,0-18.66,0-1.18-.14-2.42.78-3.4l34.4,0c0,.64.13,1.27.13,1.91Q446.93,240.45,446.92,281.25Z"/><path class="cls-13" d="M265.5,264q0-41,0-82h11.93c1,1.05.8,2.38.81,3.64,0,7.83,0,15.67,0,23.5,0,3.07.18,3.21,3.29,3.22,3.28,0,6.56,0,9.84,0,2.9,0,3.08-.2,3.09-3.17,0-7.84,0-15.67,0-23.5,0-1.26-.24-2.59.71-3.67h40.34q0,49.4,0,98.79a.66.66,0,0,1-1,0c-5.66-.93-11.17-2.48-16.73-3.85Q291.67,270.46,265.5,264Z"/><path class="cls-11" d="M295.21,182c0,9.59,0,19.19.06,28.79,0,2-.62,2.43-2.46,2.38-4.32-.11-8.64-.12-13,0-1.86,0-2.47-.47-2.45-2.41.09-9.59,0-19.19,0-28.79Z"/><path class="cls-59" d="M533.32,220.74c-1.05,1-2.08,1.95-3.13,2.91-.39.35-.76,1-1.36.66s-.26-1-.1-1.54.3-1.19.51-2c-1.66.43-3.44-1-4.58,1-.43-1.09-1.3-1.18-2.32-1.17-5.12,0-10.24,0-15.36,0-.76,0-1.6.32-2.28-.32,8.86,0,17.73,0,26.59,0C532,220.3,532.75,220.09,533.32,220.74Z"/><path class="cls-14" d="M456.18,414.78c-.61,5.27-1.12,10.56-3.94,15.27-2.23-2.95-2.64-6.55-3.31-10-1-5.36-.88-5.4,4.64-5.38C454.44,414.69,455.31,414.75,456.18,414.78Z"/><path class="cls-26" d="M205,414.87l-4.27-.19q0-10.55,0-21.09a13.57,13.57,0,0,0,1.43,0c1.86-.26,2.43.46,2.41,2.37A164.34,164.34,0,0,0,205,414.87Z"/><path class="cls-14" d="M219.43,372.42c2.46,3.78,3.07,8.14,3.79,12.43,1.38,8.21,1.31,16.51.92,24.78a59.19,59.19,0,0,1-3.2,18,8.76,8.76,0,0,1-1.46,3c-1.17-.89-1.42-2.28-1.87-3.54-2.17-6.08-2.82-12.47-3.13-18.83-.45-9.42-.22-18.85,2-28.1C217.08,377.44,217.5,374.63,219.43,372.42Z"/><path class="cls-28" d="M219.43,372.42c-1.16,4-2.54,7.85-3.13,12a116.46,116.46,0,0,0-.85,26.19,80.45,80.45,0,0,0,2.52,15.5c.44,1.53,1.39,2.88,1.51,4.52-2.16,2.62-3.78,2.55-5.44-.36-2.3-4-3.07-8.57-3.64-13.07a112.34,112.34,0,0,1,.86-36,24.84,24.84,0,0,1,3-8.54C215.89,370,217.37,370,219.43,372.42Z"/><path class="cls-60" d="M334.59,280.77h1c.32,1.46,1.51.93,2.35.93,8,0,16,.09,24,0,2,0,2.55.55,2.55,2.55q-.09,47.07-.05,94.16c0,.76.26,1.62-.48,2.24-8.9-2-17.81-4.11-26.72-6.13L272.74,360a46.9,46.9,0,0,0-7.24-1.46q0-38.64,0-77.26l40.83,0c.92,1.09.7,2.42.7,3.67,0,7.83,0,15.66,0,23.49,0,3.07.17,3.21,3.28,3.22,3.36,0,6.71,0,10.07,0,2.62,0,2.85-.24,2.87-2.91,0-7.9,0-15.81,0-23.72,0-1.26-.23-2.58.64-3.69,2.82,0,5.64-.05,8.45-.11C333.14,281.23,334,281.5,334.59,280.77Z"/><path class="cls-11" d="M323.94,281.35c0,9.75,0,19.51.11,29.27,0,1.53-.59,1.89-2,1.87-4.64-.06-9.28-.05-13.92,0-1.22,0-1.94-.2-1.93-1.68.07-9.84.09-19.67.12-29.51Z"/><path class="cls-8" d="M363,197.81c0,3.75-.09,7.51-.09,11.26q0,36.09,0,72.17c-8.16,0-16.31-.05-24.46,0-1.85,0-2.47-.45-2.46-2.4q.09-39.45,0-78.89c0-1.3,0-2.31,1.81-2.29C346.24,197.8,354.63,197.78,363,197.81Z"/><path class="cls-8" d="M386,281.73v98.86l-21.12,0q0-48-.06-96.07c0-2.37.72-2.92,3-2.87C373.84,281.82,379.91,281.73,386,281.73Z"/><path class="cls-11" d="M412.4,197.77c0,7.83,0,15.65,0,23.47,0,1.78-.33,2.6-2.35,2.5-3.43-.17-6.87-.17-10.29,0-2,.1-2.37-.72-2.36-2.5.08-7.82,0-15.65,0-23.47Z"/><path class="cls-61" d="M386,281.26q19.28,0,38.53,0c.77,0,1.62-.29,2.25.44l-40.75,0Z"/><path class="cls-62" d="M102.76,245.73a29.37,29.37,0,0,0-10.58-1.5c-4.64.11-9.28,0-13.92.06-1.84,0-2.77-.16-2.42-2.44.9-6,1.55-12,2.29-18,.71-5.68,1.38-11.36,2.09-17,.88-7.09,1.79-14.19,2.69-21.28.53-4.17,1.19-8.34,1.56-12.53.21-2.29,1.44-3.08,3.42-3.13,3-.07,6.08,0,9.12,0a1.82,1.82,0,0,1,.51.74,14.35,14.35,0,0,1,.23,3.81q0,26.22,0,52.45c0,5.88,1,11.42,4.29,16.42A2.8,2.8,0,0,1,102.76,245.73Z"/><path class="cls-63" d="M102.76,245.73A30,30,0,0,1,97,226.94c.12-18.86,0-37.71.06-56.57a2,2,0,0,1,1.7-1.12,69.75,69.75,0,0,1,9.48,0,2.16,2.16,0,0,1,1.26.64v79.65c-2.65-.05-4.15-2.22-6.21-3.38Z"/><path class="cls-64" d="M109.48,169.91c-3.32,0-6.63,0-9.94,0a4.32,4.32,0,0,0-2.5.49l0-.49a2.89,2.89,0,0,1,3.27-2.43c2.23.06,4.45,0,6.67,0,1.35,0,2.32.46,2.57,1.91C109.51,169.55,109.49,169.73,109.48,169.91Z"/><path class="cls-65" d="M103.28,246.18c2.4.52,4,2.42,6.21,3.38V250a2.15,2.15,0,0,1-3-.4A16.18,16.18,0,0,1,103.28,246.18Z"/><path class="cls-11" d="M426.81,281.76l17.74-.1c0,9.58,0,19.17.06,28.76,0,1.55-.45,2.11-2,2.08-4.55-.09-9.11-.1-13.66,0-1.73,0-2.16-.58-2.14-2.21C426.83,300.78,426.81,291.27,426.81,281.76Z"/></svg>